<?xml version="1.0" encoding="UTF-8"?>
<svg version="1.1" xmlns="http://www.w3.org/2000/svg" width="3000" height="3000">
<path d="M0 0 C990 0 1980 0 3000 0 C3000 990 3000 1980 3000 3000 C2010 3000 1020 3000 0 3000 C0 2010 0 1020 0 0 Z " fill="#FEFEFE" transform="translate(0,0)"/>
<path d="M0 0 C14.26856358 16.00703225 20.68899851 42.1351275 24.578125 62.78710938 C24.85448612 64.23672578 25.14563774 65.68361852 25.453125 67.12695312 C30.74201034 92.08958006 29.52582686 120.03335072 25 145 C24.87141602 145.78826172 24.74283203 146.57652344 24.61035156 147.38867188 C20.35946386 173.36992442 9.67494408 199.79788348 -6 221 C-7.16015625 222.60294922 -7.16015625 222.60294922 -8.34375 224.23828125 C-21.00223028 241.30109189 -35.998022 254.22496604 -53.90966797 265.55224609 C-55.84571505 266.89314299 -57.40295204 268.27749256 -59 270 C-47.71091783 269.26543643 -36.51709756 267.98140659 -25.33203125 266.30859375 C-12.4851479 264.39344357 0.37781597 262.98452897 13.30078125 261.68359375 C23.55897417 260.64797228 33.76353034 259.33162365 43.96557617 257.84301758 C52.29586145 256.62981251 60.58383872 255.42402034 69 255 C70.28197266 254.92072266 70.28197266 254.92072266 71.58984375 254.83984375 C77.85918281 254.61766378 83.11176184 255.89526806 89 258 C87.67108972 261.47549215 86.15371762 264.72871874 84.3828125 268 C83.86468994 268.9583374 83.34656738 269.9166748 82.81274414 270.90405273 C81.97731079 272.43654663 81.97731079 272.43654663 81.125 274 C80.54419678 275.06871338 79.96339355 276.13742676 79.36499023 277.23852539 C75.19803715 284.87614824 70.93187554 292.45159073 66.59228516 299.9921875 C62.67568906 306.79920848 58.82793666 313.64276847 55 320.5 C50.70547532 328.18935025 46.38219363 335.86026595 42 343.5 C37.03689845 352.15416505 32.15062529 360.84968402 27.28344727 369.55810547 C20.69656851 381.34076635 14.04608236 393.08719963 7.39550781 404.83398438 C5.78404896 407.68073174 4.17308176 410.52775631 2.5625 413.375 C2.02947266 414.31730469 1.49644531 415.25960938 0.94726562 416.23046875 C-3.07650454 423.35056146 -7.07245882 430.48596379 -11.0625 437.625 C-15.81558275 446.1281795 -20.61723825 454.60133036 -25.46337891 463.05175781 C-29.93357773 470.85799203 -34.32787628 478.70582557 -38.71655273 486.55810547 C-45.30343149 498.34076635 -51.95391764 510.08719963 -58.60449219 521.83398438 C-60.21595104 524.68073174 -61.82691824 527.52775631 -63.4375 530.375 C-63.97052734 531.31730469 -64.50355469 532.25960937 -65.05273438 533.23046875 C-69.07650454 540.35056146 -73.07245882 547.48596379 -77.0625 554.625 C-81.81558275 563.1281795 -86.61723825 571.60133036 -91.46337891 580.05175781 C-95.93357773 587.85799203 -100.32787628 595.70582557 -104.71655273 603.55810547 C-111.30343149 615.34076635 -117.95391764 627.08719963 -124.60449219 638.83398438 C-126.215951 641.68073168 -127.82678019 644.52783451 -129.4375 647.375 C-129.96327637 648.30352783 -130.48905273 649.23205566 -131.03076172 650.1887207 C-133.99300712 655.42633356 -136.93600536 660.67419109 -139.859375 665.93359375 C-140.49818604 667.08102051 -141.13699707 668.22844727 -141.79516602 669.41064453 C-143.03554268 671.64047403 -144.27311341 673.8718672 -145.50756836 676.10498047 C-146.06581299 677.10803223 -146.62405762 678.11108398 -147.19921875 679.14453125 C-147.69252686 680.03503174 -148.18583496 680.92553223 -148.6940918 681.84301758 C-150 684 -150 684 -152 686 C-150.56450407 677.5997387 -148.18414514 669.54885363 -145.6953125 661.41015625 C-145.25976707 659.97313064 -144.82467485 658.53596759 -144.38999939 657.09867859 C-143.4601076 654.02678539 -142.52744839 650.95575213 -141.59255981 647.88537598 C-140.0989506 642.97945432 -138.61208745 638.07150507 -137.12670898 633.16308594 C-136.87576194 632.33387445 -136.62481489 631.50466297 -136.36626339 630.65032387 C-135.85621705 628.96490898 -135.34619305 627.27948733 -134.83619118 625.59405899 C-134.06265818 623.03839808 -133.28855143 620.48291154 -132.514328 617.92745972 C-127.85855027 602.55648364 -123.2535121 587.17062399 -118.66710281 571.77882767 C-117.64754302 568.35755493 -116.6273135 564.93648189 -115.60717773 561.51538086 C-114.359134 557.3297518 -113.11120012 553.14409006 -111.86360168 548.95832825 C-107.29385703 533.62712741 -102.71453016 518.29879078 -98.1350708 502.9704895 C-96.69188706 498.13981316 -95.2489976 493.30904894 -93.80615234 488.47827148 C-89.3197068 473.45755682 -84.83216076 458.43717264 -80.34147644 443.41772461 C-78.53586812 437.37867852 -76.73075482 431.33948449 -74.92574787 425.30025864 C-73.70688115 421.22228643 -72.48775197 417.14439316 -71.26791382 413.06671143 C-69.9108912 408.53038758 -68.55482819 403.99377758 -67.19921875 399.45703125 C-66.87542771 398.37390152 -66.87542771 398.37390152 -66.54509544 397.26889038 C-64.06854061 388.98177028 -61.61069711 380.68950194 -59.18212891 372.38818359 C-58.95192582 371.60202888 -58.72172274 370.81587416 -58.4845438 370.00589657 C-57.38204328 366.23991501 -56.28218646 362.47319966 -55.18717957 358.70503235 C-54.793898 357.35891276 -54.40053594 356.0128167 -54.00708008 354.66674805 C-53.66663162 353.49645554 -53.32618317 352.32616302 -52.97541809 351.1204071 C-52.10755117 348.3440611 -51.12529834 345.68063086 -50 343 C-51.95099609 343.25523437 -51.95099609 343.25523437 -53.94140625 343.515625 C-54.81821045 343.63010986 -55.69501465 343.74459473 -56.59838867 343.86254883 C-58.62339127 344.12724524 -60.64828915 344.39274365 -62.6730957 344.65893555 C-68.50070171 345.42270807 -74.32990628 346.16678905 -80.1640625 346.87890625 C-94.3407391 348.62781338 -108.41944856 350.66232628 -122.5 353.0625 C-195.51561875 365.49132292 -195.51561875 365.49132292 -209 358 C-212.0625 355.4375 -212.0625 355.4375 -214 352 C-214.26328828 345.05713484 -212.16322198 338.56380505 -209.8125 332.125 C-209.47226807 331.16883789 -209.13203613 330.21267578 -208.78149414 329.22753906 C-204.20136727 316.52832066 -199.20367895 303.9810022 -194.28515625 291.41015625 C-184.07624166 267.90121956 -184.07624166 267.90121956 -180 243 C-180.75337646 244.27339233 -180.75337646 244.27339233 -181.52197266 245.57250977 C-191.3162272 262.12183288 -201.15899911 278.63645413 -211.19287109 295.04199219 C-214.25365014 300.05204338 -217.30322921 305.06889124 -220.35116577 310.08676147 C-221.07166476 311.27279061 -221.79238592 312.45868482 -222.51333618 313.6444397 C-226.45909051 320.13449389 -230.38700034 326.6343807 -234.2734375 333.16015625 C-234.61643387 333.73527954 -234.95943024 334.31040283 -235.31282043 334.9029541 C-236.93968246 337.6309902 -238.56291129 340.36104122 -240.17944336 343.09521484 C-240.75573486 344.06281738 -241.33202637 345.03041992 -241.92578125 346.02734375 C-242.67468628 347.29179321 -242.67468628 347.29179321 -243.4387207 348.58178711 C-246.7859583 353.76621062 -250.1189053 357.73619776 -256 360 C-261.0433798 360.80053648 -263.80573818 360.52260198 -268.0625 357.6875 C-281.41854863 346.47469205 -287.73058237 325.43775413 -289.21994019 308.49850464 C-289.48856259 303.36947018 -289.48561408 298.24811416 -289.41162109 293.11376953 C-289.3750172 290.50122772 -289.37060474 287.89011649 -289.37109375 285.27734375 C-289.30900671 270.10236296 -288.01249471 255.16555522 -284.8125 240.3125 C-284.59891846 239.3112207 -284.38533691 238.30994141 -284.1652832 237.27832031 C-278.88632665 213.37798955 -270.45982797 190.60582213 -259 169 C-258.59942383 168.23220215 -258.19884766 167.4644043 -257.78613281 166.67333984 C-248.28716227 148.52079987 -237.01294311 131.81278252 -224 116 C-223.33097656 115.17653076 -223.33097656 115.17653076 -222.6484375 114.33642578 C-210.90038416 99.93247324 -197.79336149 86.28908696 -183 75 C-182.04738281 74.23042969 -181.09476563 73.46085938 -180.11328125 72.66796875 C-152.76842113 50.88128597 -111.25534699 26.14231215 -75 27 C-78.8885394 34.33829078 -83.05100365 41.40467076 -87.5625 48.375 C-88.79235769 50.29773526 -90.02150623 52.22092426 -91.25 54.14453125 C-93.10736949 57.04691243 -94.966545 59.9480431 -96.83203125 62.84521484 C-106.46865411 77.66114284 -106.46865411 77.66114284 -113 94 C-113.35964844 95.19367188 -113.71929688 96.38734375 -114.08984375 97.6171875 C-115.39294877 102.97467857 -115.36811859 108.32457333 -115.375 113.8125 C-115.39949219 114.82892578 -115.42398437 115.84535156 -115.44921875 116.89257812 C-115.48518565 126.29792203 -113.46068432 135.5833883 -106.75 142.5625 C-101.26485875 147.06815174 -95.19846984 148.80403235 -88.1484375 148.5078125 C-66.88488715 145.0782076 -48.31855005 129.28988887 -35.82128906 112.40771484 C-13.37670084 81.19379297 -5.24313573 44.95504212 -1.59521484 7.25439453 C-1.09617405 2.19234809 -1.09617405 2.19234809 0 0 Z " fill="#E34A47" transform="translate(1595,817)"/>
<path d="M0 0 C1.05957413 -0.00845947 2.11914825 -0.01691895 3.21083069 -0.02563477 C4.36311661 -0.01956207 5.51540253 -0.01348938 6.7026062 -0.00723267 C7.92437057 -0.01248962 9.14613495 -0.01774658 10.40492249 -0.02316284 C13.75049587 -0.03409665 17.09551183 -0.03154242 20.44105387 -0.02202559 C23.95263301 -0.0144105 27.46418893 -0.02148067 30.97576904 -0.02618408 C36.87873587 -0.03164059 42.78159008 -0.02445735 48.68453979 -0.01016235 C55.48562742 0.00611867 62.28644457 0.00090857 69.08752549 -0.01564157 C74.9425502 -0.02931387 80.79749405 -0.03114685 86.6525296 -0.02332556 C90.14214807 -0.01867458 93.63164007 -0.01795158 97.12125015 -0.02793503 C101.02217106 -0.03831507 104.92279667 -0.02387411 108.82369995 -0.00723267 C110.53391075 -0.01634171 110.53391075 -0.01634171 112.27867126 -0.02563477 C128.25750185 0.09993268 143.57491733 5.85329316 155.65133667 16.38095093 C169.24970213 30.6995688 170.83862909 49.36469956 170.8366394 68.0796814 C170.83880547 70.34827031 170.85695554 72.61635517 170.87594604 74.88485718 C170.91519436 85.19464065 170.02481136 95.1706683 168.65133667 105.38095093 C168.31709613 108.29580812 168.01663555 111.21254648 167.71383667 114.13095093 C167.63520386 114.88062134 167.55657104 115.63029175 167.47555542 116.40267944 C166.94581005 121.4708778 166.43475218 126.54080498 165.92868042 131.61141968 C165.80033813 132.8834021 165.67199585 134.15538452 165.5397644 135.46591187 C165.28727867 137.97013868 165.03791857 140.4746833 164.79220581 142.97958374 C164.12925078 149.53082163 163.26525287 155.98937728 162.13327026 162.47543335 C161.17238892 168.2684672 160.55384768 174.10894682 159.88375854 179.9414978 C158.9082881 188.08478979 157.50200253 196.1200803 156.04302979 204.18688965 C155.41156346 207.72403586 154.81811396 211.26745531 154.22164917 214.81063843 C143.14251654 280.10619482 143.14251654 280.10619482 116.99508667 300.44735718 C109.5020257 305.49163166 101.11968077 309.28845139 92.65133667 312.38095093 C91.61442184 312.7933754 90.57750702 313.20579987 89.50917053 313.63072205 C75.99587638 318.55844123 62.28272799 318.03680285 48.08071589 317.88792062 C44.53875981 317.85624198 40.99677256 317.85369424 37.45469666 317.84779358 C30.7756108 317.83237504 24.09694384 317.79151304 17.41804081 317.74104613 C9.80237344 317.6847744 2.18668396 317.65757203 -5.42914021 317.63256896 C-21.06922217 317.58058321 -36.70888832 317.49288006 -52.34866333 317.38095093 C-52.68409913 315.61979487 -53.01532848 313.85783728 -53.34477234 312.09555054 C-53.52967507 311.11444809 -53.71457781 310.13334564 -53.90508366 309.12251282 C-54.416321 305.96279001 -54.42807206 303.12820456 -54.12600708 299.94345093 C-54.01627563 298.76138062 -53.90654419 297.5793103 -53.79348755 296.36141968 C-53.64846901 295.03423692 -53.49998306 293.70743002 -53.34866333 292.38095093 C-53.26481384 291.63667847 -53.18096436 290.89240601 -53.09457397 290.12557983 C-52.51665183 285.0801087 -51.89159351 280.04132797 -51.24685669 275.0039978 C-50.91172343 272.38532745 -50.58186206 269.76603553 -50.25296021 267.14657593 C-48.54943742 253.64011945 -46.61691269 240.17305368 -44.61552429 226.70793152 C-42.13401442 209.99894944 -39.77627669 193.29230639 -37.74978638 176.52182007 C-36.61385369 167.22022195 -35.24497765 157.97302324 -33.77346802 148.71932983 C-32.68033765 141.76586553 -31.76722521 134.81200508 -30.97366333 127.81845093 C-29.47097172 114.58955307 -27.49373761 101.43429181 -25.50540161 88.27133179 C-24.18027358 79.44336545 -22.99533982 70.62450311 -22.04997253 61.74754333 C-21.31931329 54.93210867 -20.35512212 48.16090881 -19.34866333 41.38095093 C-19.1603696 40.05168191 -18.97323933 38.72224768 -18.78713989 37.39266968 C-18.30070172 33.92024323 -17.79601068 30.45085297 -17.28128052 26.98251343 C-17.07422336 25.5679515 -16.87282829 24.15255048 -16.67678833 22.73641968 C-16.38645863 20.64680985 -16.07655978 18.56089379 -15.76272583 16.47470093 C-15.58692993 15.25460327 -15.41113403 14.03450562 -15.23001099 12.7774353 C-13.98683176 7.98654628 -12.10668389 4.63780392 -8.04394722 1.73325157 C-5.0811869 0.24675039 -3.29113409 0.0040566 0 0 Z " fill="#060505" transform="translate(1258.3486633300781,1600.6190490722656)"/>
<path d="M0 0 C1.66612816 -0.00015566 3.33225667 -0.00165564 4.99838257 -0.00440979 C8.4590492 -0.00578019 11.91929452 0.00653505 15.37988281 0.02954102 C19.77134093 0.05796634 24.16210371 0.05515764 28.55361366 0.0424509 C31.98387387 0.03543187 35.41397886 0.04335249 38.84421921 0.05570793 C40.46181006 0.06015912 42.07941795 0.06061609 43.69701004 0.05664253 C64.38308316 0.02958773 86.59805956 3.42129258 102.0234375 18.49609375 C119.43330277 40.84896096 113.62881612 72.78552259 110.44677734 99.11914062 C109.61218115 105.77665763 108.72257508 112.42429336 107.7734375 119.06640625 C106.92158149 125.09373118 106.22586078 131.13736082 105.5234375 137.18359375 C104.39135711 146.81909999 103.00903027 156.38079099 101.43261719 165.95214844 C100.98794745 168.7167419 100.56961357 171.48446155 100.15625 174.25390625 C97.74412264 190.38222645 94.96857594 206.43107787 92.08958435 222.48097229 C91.32777804 226.74320929 90.59632354 231.00927636 89.890625 235.28125 C85.83911413 259.75596142 79.97123314 286.43473807 59.42578125 302.53125 C56.6928042 304.36262637 53.9308868 305.95731074 51.0234375 307.49609375 C50.0334375 308.02976562 49.0434375 308.5634375 48.0234375 309.11328125 C27.30683446 319.12298608 2.51706347 318.71515795 -20.0390625 318.68359375 C-21.24505096 318.68268738 -21.24505096 318.68268738 -22.47540283 318.6817627 C-76.07478039 318.5729153 -76.07478039 318.5729153 -94.71484375 300.95703125 C-108.27970659 286.19733594 -108.71435775 266.78367506 -108.13769531 247.82080078 C-107.18277226 228.11755521 -104.72897875 208.02868792 -101.07421875 188.6328125 C-99.29751996 179.04823373 -97.99494896 169.37936661 -96.58105469 159.73608398 C-96.19421788 157.10237807 -95.80426715 154.46914624 -95.4140625 151.8359375 C-95.2994165 151.04710678 -95.18477051 150.25827606 -95.06665039 149.44554138 C-94.47150668 145.4371123 -93.78407679 141.4718978 -92.96069336 137.50366211 C-91.97919902 132.70002076 -91.33572559 127.90560686 -90.79296875 123.03515625 C-90.69193344 122.16450531 -90.59089813 121.29385437 -90.48680115 120.39682007 C-90.16697839 117.63867795 -89.85242846 114.87997636 -89.5390625 112.12109375 C-88.30609178 101.2915495 -87.03555699 90.47693777 -85.4296875 79.6953125 C-85.31174332 78.89884308 -85.19379913 78.10237366 -85.07228088 77.2817688 C-81.70773707 55.23348582 -75.13029435 31.12450925 -56.9765625 16.49609375 C-39.54905364 3.83121708 -21.11468575 -0.16449399 0 0 Z " fill="#060506" transform="translate(1091.9765625,1600.50390625)"/>
<path d="M0 0 C1.20397934 -0.00554901 2.40795868 -0.01109802 3.64842224 -0.01681519 C6.94719456 -0.02659838 10.24439785 -0.01400635 13.54300332 0.00946999 C17.01085796 0.02964486 20.47868005 0.02369512 23.94657898 0.0213623 C29.78158219 0.02141588 35.61626178 0.04115815 41.45117188 0.07324219 C48.15788657 0.10994538 54.86417455 0.11894394 61.57097656 0.11194468 C68.05457423 0.10558864 74.5380283 0.11649943 81.02159691 0.13591003 C83.76319647 0.14399865 86.50472173 0.14680948 89.24633217 0.1452179 C107.33149689 0.15374977 124.24514728 0.35700606 141.11987305 7.61523438 C141.9706543 7.96199219 142.82143555 8.30875 143.69799805 8.66601562 C156.01368288 14.16273999 162.08696258 23.58717752 167.11987305 35.61523438 C168.21277426 39.05531533 168.2490118 42.25872479 168.25268555 45.85742188 C168.25397461 47.08976562 168.25526367 48.32210938 168.2565918 49.59179688 C168.25272461 50.87828125 168.24885742 52.16476562 168.24487305 53.49023438 C168.24874023 54.73804688 168.25260742 55.98585938 168.2565918 57.27148438 C168.2440764 69.36135482 167.70004547 81.24522796 165.30737305 93.11523438 C165.12851562 94.01395264 164.9496582 94.9126709 164.76538086 95.83862305 C160.34258221 117.53482115 152.65960851 138.03496136 134.11987305 151.61523438 C131.3503418 152.83398438 131.3503418 152.83398438 129.11987305 153.61523438 C129.11987305 154.27523438 129.11987305 154.93523437 129.11987305 155.61523438 C129.85077148 155.85886719 130.58166992 156.1025 131.3347168 156.35351562 C139.16589219 159.90115889 144.8863865 167.83661792 147.91723633 175.67822266 C150.30116535 182.83302164 150.65784172 189.54692624 150.61987305 197.05273438 C150.61455566 198.97859375 150.61455566 198.97859375 150.60913086 200.94335938 C150.48052442 211.43526351 149.35858321 221.73684167 147.86987305 232.11523438 C147.71651489 233.20286575 147.71651489 233.20286575 147.56005859 234.31246948 C144.15742274 257.94326526 137.14650099 280.2965545 120.11987305 297.61523438 C119.48178711 298.26621094 118.84370117 298.9171875 118.1862793 299.58789062 C110.14971194 307.19004893 99.55447914 311.35025546 89.11987305 314.61523438 C88.37800908 314.85739874 87.63614511 315.0995631 86.87180042 315.34906578 C79.52892312 317.57562617 72.76760263 318.06549779 65.12451172 318.06689453 C63.87433258 318.07857666 62.62415344 318.09025879 61.33609009 318.10229492 C57.94165869 318.12993333 54.54777644 318.14418041 51.15327621 318.14993715 C49.02828559 318.15431657 46.9033481 318.16270902 44.77837563 318.17243576 C37.35384996 318.20605381 29.92948183 318.22330424 22.50488281 318.22607422 C15.59876137 318.22911796 8.69352928 318.26970624 1.7876665 318.32722247 C-4.16082966 318.37501047 -10.10903154 318.39580628 -16.05771846 318.39586484 C-19.60273401 318.39640204 -23.1468727 318.40790948 -26.69169044 318.44704056 C-30.63872596 318.48959458 -34.58449409 318.47609193 -38.53173828 318.45751953 C-39.6991304 318.47797333 -40.86652252 318.49842712 -42.06929016 318.51950073 C-49.77976592 318.41964352 -49.77976592 318.41964352 -52.95054054 316.10167694 C-55.40081963 313.35882037 -56.71544247 311.3472482 -57.52758789 307.73730469 C-57.47376953 306.81530273 -57.41995117 305.89330078 -57.36450195 304.94335938 C-57.3097168 303.90501953 -57.25493164 302.86667969 -57.19848633 301.796875 C-56.68025877 296.61777877 -55.97668137 291.50058284 -55.13012695 286.36523438 C-53.52615401 276.13417841 -52.12494016 265.89472281 -50.88012695 255.61523438 C-49.66094633 245.59342861 -48.33246704 235.59756802 -46.81762695 225.61523438 C-45.11737488 214.40337982 -43.65962093 203.17636174 -42.28637695 191.92041016 C-38.3965387 160.27339675 -38.3965387 160.27339675 -35.95214844 145.31640625 C-34.56763379 136.81647858 -33.43418537 128.28467424 -32.2980957 119.74853516 C-31.8500526 116.38978214 -31.39656753 113.03178896 -30.94262695 109.67382812 C-29.52112621 99.1230246 -28.1128577 88.57148765 -26.8059082 78.00585938 C-26.6732531 76.93475418 -26.6732531 76.93475418 -26.53791809 75.8420105 C-26.1127685 72.40313023 -25.69139688 68.96386995 -25.27490234 65.52392578 C-24.45245399 58.81913687 -23.50015348 52.16635326 -22.35327148 45.50976562 C-21.5481286 40.58418562 -20.97307476 35.63250927 -20.38012695 30.67773438 C-20.11784689 28.57868335 -19.85483207 26.47972399 -19.59106445 24.38085938 C-19.17364356 21.03932385 -18.77642374 17.69806345 -18.41918945 14.34960938 C-18.28254883 13.22039062 -18.1459082 12.09117188 -18.00512695 10.92773438 C-17.90458008 9.99574219 -17.8040332 9.06375 -17.70043945 8.10351562 C-14.79881186 -0.69808806 -7.86442227 -0.09189463 0 0 Z " fill="#050405" transform="translate(810.880126953125,1600.384765625)"/>
<path d="M0 0 C1.0583757 -0.00960754 2.1167514 -0.01921509 3.2071991 -0.02911377 C4.35610123 -0.03336365 5.50500336 -0.03761353 6.6887207 -0.04199219 C8.45745293 -0.0505423 8.45745293 -0.0505423 10.26191711 -0.05926514 C12.7628184 -0.06872686 15.26373222 -0.07525375 17.76464844 -0.07910156 C21.58135969 -0.08878312 25.3975271 -0.11978643 29.21411133 -0.15136719 C31.64314459 -0.15789951 34.0721817 -0.16314908 36.5012207 -0.16699219 C38.20939217 -0.18551239 38.20939217 -0.18551239 39.95207214 -0.20440674 C45.96128574 -0.18761721 50.79317546 -0.15232235 55.92700195 3.16113281 C57.22485352 5.7421875 57.22485352 5.7421875 57.81762695 8.83300781 C58.16676147 10.53021973 58.16676147 10.53021973 58.52294922 12.26171875 C58.73878662 13.46602539 58.95462402 14.67033203 59.17700195 15.91113281 C59.42313232 17.14379883 59.6692627 18.37646484 59.92285156 19.64648438 C60.61743973 23.14689479 61.27553427 26.65249115 61.92700195 30.16113281 C62.21091678 31.59939728 62.49785154 33.03707581 62.7902832 34.47363281 C63.25286371 36.7477716 63.70614343 39.02382397 64.1496582 41.30175781 C65.37004272 47.3607523 66.70542998 53.39461537 68.03857422 59.4296875 C69.62821234 66.66263681 71.09549077 73.91685015 72.53424072 81.18121338 C73.19612825 84.51780536 73.86465863 87.85306629 74.5324707 91.18847656 C74.79617381 92.50682969 75.05984582 93.82518904 75.32348633 95.14355469 C75.51817505 96.11699829 75.51817505 96.11699829 75.71679688 97.11010742 C76.78686523 102.46044922 77.85693359 107.81079102 78.92700195 113.16113281 C81.82402597 109.65397375 83.7196512 105.755958 85.6730957 101.68066406 C86.03625381 100.93205612 86.39941193 100.18344818 86.77357483 99.41215515 C87.97447629 96.93452698 89.16944068 94.45408251 90.36450195 91.97363281 C91.20779389 90.23122354 92.05155186 88.48903976 92.89575195 86.74707031 C94.21743633 84.01948524 95.53870989 81.291707 96.85836792 78.56314087 C99.9727243 72.12408878 103.10264963 65.69281391 106.2434082 59.26660156 C106.67575775 58.38170044 107.1081073 57.49679932 107.55355835 56.58508301 C109.27025188 53.07205574 110.98734101 49.5592248 112.70654297 46.04742432 C116.6808857 37.92831677 120.64946921 29.81053566 124.4543457 21.61035156 C124.95836914 20.52882813 125.46239258 19.44730469 125.98168945 18.33300781 C126.86430727 16.42814902 127.73650972 14.51840596 128.5949707 12.60253906 C131.1945912 6.99376881 133.55677461 3.61016617 139.42944336 1.08520508 C144.14847211 -0.16158564 148.61595929 -0.16363627 153.4777832 -0.17480469 C154.99785225 -0.18478989 154.99785225 -0.18478989 156.54862976 -0.19497681 C158.68767489 -0.20507727 160.82675136 -0.20979464 162.96582031 -0.20947266 C166.21839009 -0.21383885 169.46959441 -0.25016795 172.72192383 -0.28808594 C174.80720568 -0.29395622 176.89249393 -0.2979242 178.9777832 -0.29980469 C179.94057693 -0.31417572 180.90337067 -0.32854675 181.89533997 -0.34335327 C189.022397 -0.2957333 195.71734735 0.95147821 200.92700195 6.16113281 C200.07285106 14.41792482 196.07660878 21.33041397 192.28149414 28.5625 C190.75912875 31.48320245 189.26828247 34.4189606 187.77856445 37.35644531 C180.5600294 51.52589437 172.88214431 65.32703998 164.78051758 79.00683594 C161.40157022 84.75709935 158.10372096 90.55381704 154.80200195 96.34863281 C154.12020803 97.54468313 153.43840471 98.74072808 152.7565918 99.93676758 C151.43326269 102.25832148 150.11023946 104.58004892 148.78735352 106.90185547 C147.08695455 109.88090089 145.38003379 112.85604606 143.66918945 115.82910156 C133.95914 132.71329612 124.36330564 149.68265092 115.87133789 167.21923828 C114.88416941 169.24921193 113.87820473 171.26928577 112.87231445 173.29003906 C97.37354309 204.84084935 94.63143991 238.4864966 92.21191406 273.12573242 C91.5587294 282.22371289 90.69988853 291.26987792 89.30200195 300.28613281 C89.18606689 301.18082275 89.07013184 302.0755127 88.95068359 302.99731445 C87.93645729 308.89770183 85.91768805 312.21360287 81.14868164 315.88769531 C77.53872947 317.95687229 74.46400423 318.1589957 70.36450195 318.09863281 C69.5353125 318.1118457 68.70612305 318.12505859 67.85180664 318.13867188 C65.9660331 318.16232006 64.08000208 318.16919285 62.1940918 318.16259766 C59.1535704 318.1612344 56.11640414 318.20587119 53.07655334 318.26637268 C50.30149294 318.31911024 47.52638262 318.35477742 44.75100708 318.38626099 C43.38025137 318.40269932 42.00953339 318.42271619 40.6388855 318.44650269 C33.09015158 318.56276824 26.75033731 318.58944277 19.92700195 315.16113281 C17.92700195 313.16113281 17.92700195 313.16113281 17.67016602 311.25952148 C17.73995548 303.90204301 18.63703308 296.75102421 19.67700195 289.47363281 C19.95182866 287.4903473 20.22663149 285.50705819 20.50013733 283.52359009 C20.68926134 282.15302104 20.87915922 280.78255857 21.06980896 279.41220093 C21.73849856 274.59156354 22.36976735 269.76712226 22.9777832 264.93847656 C23.06216141 264.26900497 23.14653961 263.59953339 23.23347473 262.90977478 C23.40200675 261.57190309 23.5705098 260.23402776 23.73898315 258.89614868 C25.04892618 248.51665741 26.46667252 238.18576285 28.3137207 227.88769531 C31.31102567 209.67477211 32.07357081 188.453039 27.48803711 170.44921875 C26.77590095 167.54489321 26.15595037 164.62482092 25.5324707 161.70019531 C23.19771276 150.80165343 20.84908538 139.93665498 17.57104492 129.27783203 C16.7465829 126.56817101 15.94857248 123.85109159 15.1496582 121.13378906 C11.20788267 107.72524388 11.20788267 107.72524388 7.1340332 94.35644531 C-5.44349552 53.84314946 -5.44349552 53.84314946 -8.6003418 33.02050781 C-8.9177598 30.22547907 -8.9177598 30.22547907 -10.07299805 28.16113281 C-13.07393599 9.56272731 -13.07393599 9.56272731 -9.19799805 2.97363281 C-5.96524249 0.21628249 -4.17451694 0.03052597 0 0 Z " fill="#060506" transform="translate(1461.072998046875,1600.8388671875)"/>
<path d="M0 0 C0.94294922 0.00515625 1.88589844 0.0103125 2.85742188 0.015625 C8.3385939 0.07589906 13.6963953 0.42544479 19.13208008 1.13769531 C21.42919446 1.25601046 23.11621464 0.88882546 25.3125 0.25 C30.07390445 -0.28413191 33.93490342 -0.67907676 38 2.0625 C39.38270094 5.42048801 39.37064933 6.67830652 38.99511719 10.18847656 C38.83903992 11.66205627 38.83903992 11.66205627 38.67980957 13.16540527 C38.07330288 18.25873116 37.40735797 23.34116705 36.703125 28.421875 C36.5400032 29.61376434 36.37688141 30.80565369 36.20881653 32.03366089 C35.8511928 34.64412183 35.49267027 37.25444037 35.13259888 39.86456299 C34.54996749 44.08823478 33.97094196 48.31239652 33.39233398 52.53662109 C32.52518205 58.8647787 31.65638122 65.19270819 30.78662109 71.52050781 C28.41542231 88.77331025 26.05195928 106.02717391 23.68926811 123.28114319 C22.8200412 129.62819854 21.94969992 135.97509977 21.07842731 142.32187462 C20.52717468 146.33869168 19.97670104 150.35561525 19.42639732 154.37256241 C19.17041514 156.23988469 18.91411214 158.10716303 18.65744972 159.97439194 C17.45921175 168.69279273 16.27142279 177.41239663 15.15795898 186.14208984 C14.99980209 187.37970062 14.8416452 188.6173114 14.67869568 189.89242554 C13.42500103 198.94765216 13.42500103 198.94765216 16.3125 207.25 C20.97941221 210.17497093 26.67699344 209.61786938 32 209.625 C32.94294922 209.64949219 33.88589844 209.67398437 34.85742188 209.69921875 C41.5491409 209.72681347 47.49916698 208.74576818 53.3125 205.25 C55.91642977 202.31539715 56.80106261 200.02126251 57.39868164 196.16845703 C57.55490997 195.19555725 57.71113831 194.22265747 57.87210083 193.22027588 C58.01743256 192.24008484 58.16276428 191.2598938 58.3125 190.25 C58.45050018 189.37245056 58.58850037 188.49490112 58.73068237 187.59075928 C59.14658121 184.91408425 59.54266947 182.23511911 59.93359375 179.5546875 C60.07802414 178.57260818 60.22245453 177.59052887 60.3712616 176.57868958 C60.83339477 173.42782682 61.29205989 170.27647472 61.75 167.125 C61.90756775 166.04465485 62.0651355 164.96430969 62.22747803 163.85122681 C64.0540104 151.30949553 65.82301695 138.77527454 67.24975586 126.18115234 C68.28209423 117.18180356 69.53683516 108.21746626 70.8125 99.25 C70.96564667 98.16312393 70.96564667 98.16312393 71.12188721 97.05429077 C72.18527473 89.52462724 73.33277711 82.03055264 74.7109375 74.55078125 C76.95565024 62.24425499 78.49641031 49.82341415 80.16870117 37.42926025 C80.79571011 32.78321515 81.42534112 28.1375328 82.05807495 23.49226379 C82.3931035 21.03186485 82.72597611 18.57117113 83.056427 16.1101532 C83.20683441 15.00412247 83.35724182 13.89809174 83.51220703 12.75854492 C83.64305695 11.78833908 83.77390686 10.81813324 83.90872192 9.81852722 C84.04196869 8.97091324 84.17521545 8.12329926 84.3125 7.25 C84.42399384 6.51199661 84.53548767 5.77399323 84.65036011 5.0136261 C85.3125 3.25 85.3125 3.25 88.70703125 1.5234375 C95.76812161 -0.53633831 103.17958329 -0.1964887 110.4699707 -0.14111328 C113.00461096 -0.12497063 115.5376726 -0.14104943 118.07226562 -0.16015625 C119.69792015 -0.15817478 121.32357371 -0.1543331 122.94921875 -0.1484375 C123.69934738 -0.15451019 124.44947601 -0.16058289 125.22233582 -0.1668396 C130.99584952 -0.09007904 135.18944163 1.12694163 139.3125 5.25 C139.71595003 12.23658432 138.79226504 18.855698 137.703125 25.74609375 C137.35936071 27.99999782 137.01561129 30.25390416 136.671875 32.5078125 C136.49076172 33.67860352 136.30964844 34.84939453 136.12304688 36.05566406 C133.62239945 52.25759397 131.12839029 68.45522532 129.3125 84.75 C125.55550944 118.27607244 121.58528386 151.90218105 116.0625 185.1875 C115.94988831 185.87769226 115.83727661 186.56788452 115.72125244 187.2789917 C111.95235049 210.1536972 106.70637306 232.65659057 87.3125 247.25 C61.62051636 263.62319635 17.27134781 261.59545129 -11.72265625 255.625 C-22.3250692 252.81048314 -31.98914511 246.93999132 -37.58984375 237.359375 C-42.28240792 228.34163602 -42.86200852 219.53571915 -42.8125 209.5 C-42.80911621 208.51862061 -42.80573242 207.53724121 -42.80224609 206.52612305 C-42.73614132 197.28144718 -41.97974485 188.53662713 -40.22265625 179.46484375 C-39.54715077 175.40688019 -39.11494681 171.34043435 -38.6875 167.25 C-38.0859761 161.50582893 -37.30730231 155.88774917 -36.1875 150.21875 C-35.51824261 146.24503422 -35.10718849 142.25671353 -34.6875 138.25 C-34.08582076 132.50584354 -33.30730488 126.88776219 -32.1875 121.21875 C-31.38672384 116.46414153 -30.94066418 111.67264401 -30.43969727 106.87866211 C-29.89398768 101.7794702 -29.11238591 96.78721141 -28.12109375 91.75390625 C-27.65893557 89.08504684 -27.40391362 86.44947519 -27.1875 83.75 C-26.90020076 80.16632004 -26.44462263 76.71445987 -25.75 73.1875 C-24.79444903 68.24694758 -24.21266236 63.31266653 -23.6875 58.3125 C-23.05279036 52.27686427 -22.24573311 46.32918402 -21.18359375 40.3515625 C-20.5836567 36.60077496 -20.16709086 32.8367675 -19.75 29.0625 C-19.0480209 22.98717743 -18.29937802 16.92080902 -17.375 10.875 C-17.28162354 10.15546143 -17.18824707 9.43592285 -17.09204102 8.69458008 C-16.57755164 5.53197244 -16.02359274 3.59015838 -13.75 1.2890625 C-9.16059576 -0.26805679 -4.81002366 -0.10309495 0 0 Z " fill="#E34A47" transform="translate(1841.6875,1660.75)"/>
<path d="M0 0 C1.42278747 0.00553076 1.42278747 0.00553076 2.87431812 0.01117325 C3.96386799 0.00567459 5.05341785 0.00017593 6.17598438 -0.00548935 C7.96917355 0.01608231 7.96917355 0.01608231 9.79858875 0.03808975 C11.05723743 0.03750565 12.31588612 0.03692154 13.61267567 0.03631973 C17.0650951 0.03517083 20.51696002 0.05870776 23.96925044 0.08661556 C27.57670747 0.11160032 31.18417684 0.11396889 34.79170704 0.11871719 C41.62346999 0.13115565 48.45497728 0.16398879 55.28662759 0.20411515 C63.06402212 0.248806 70.84142879 0.2708131 78.61891973 0.29089689 C94.61816652 0.33272085 110.61715816 0.40308952 126.61621571 0.49219131 C132.65704206 11.55704157 127.85684615 30.84325629 124.52637196 42.20703506 C123.19825261 45.54158363 121.51989792 47.41813259 118.61621571 49.49219131 C114.88441755 50.48813616 111.34564928 50.62089784 107.49512196 50.62500381 C105.7325304 50.62790421 105.7325304 50.62790421 103.93433094 50.63086319 C102.0753014 50.62409561 102.0753014 50.62409561 100.17871571 50.61719131 C98.26457874 50.61429092 98.26457874 50.61429092 96.31177235 50.61133194 C89.18926947 50.57849463 82.17079239 50.27994501 75.07056141 49.71509171 C71.63148593 49.49317666 68.23003384 49.42749009 64.78418446 49.42578506 C63.54740955 49.424496 62.31063465 49.42320694 61.03638172 49.42187881 C55.56289442 49.43314621 50.08958148 49.45369653 44.61621571 49.49219131 C42.87109786 56.88040053 41.55179524 64.3216639 40.32910633 71.81152725 C39.99279784 73.85756591 39.644422 75.90132721 39.29590321 77.94531631 C39.07640318 79.28113079 38.85762964 80.61706488 38.63965321 81.95312881 C38.44291004 83.13697159 38.24616688 84.32081436 38.0434618 85.54053116 C37.50291982 90.54008115 37.53181332 95.46935439 37.61621571 100.49219131 C38.35679722 100.47886765 39.09737873 100.46554398 39.86040211 100.45181656 C46.84880982 100.3314613 53.83706215 100.2401771 60.82624054 100.18131828 C64.41936198 100.15003959 68.01162528 100.10763512 71.60425282 100.0395546 C75.07322361 99.9742308 78.54137059 99.93845922 82.01090908 99.92292786 C83.97481076 99.90648922 85.9383821 99.85966945 87.90178394 99.81241226 C96.58604979 99.80913497 96.58604979 99.80913497 99.55385303 101.77695084 C101.55852981 104.0744535 102.54936096 106.07068808 103.02637196 109.07812881 C102.91164539 109.99851944 102.79691883 110.91891006 102.67871571 111.86719131 C102.47568836 113.53394913 102.47568836 113.53394913 102.26855946 115.23437881 C102.05360004 116.65402868 101.83579246 118.07324828 101.61621571 119.49219131 C101.41149647 120.90999893 101.41149647 120.90999893 101.20264149 122.35644913 C100.73470115 125.57160379 100.24303905 128.78215701 99.74121571 131.99219131 C99.58016346 133.04326065 99.41911121 134.09432999 99.2531786 135.17724991 C99.08680897 136.17836807 98.92043934 137.17948624 98.74902821 138.21094131 C98.60352528 139.10748428 98.45802235 140.00402725 98.30811024 140.92773819 C97.49569276 143.93890022 96.50467792 146.00388955 94.61621571 148.49219131 C91.00303194 150.29772378 88.10691805 150.73183444 84.09497547 150.68750381 C83.01357792 150.68089737 81.93218037 150.67429092 80.81801319 150.66748428 C79.65958408 150.6508876 78.50115498 150.63429092 77.30762196 150.61719131 C76.10814426 150.60961807 74.90866657 150.60204483 73.67284107 150.5942421 C68.54596769 150.56156548 63.41941408 150.50528658 58.29272938 150.45117569 C54.54770856 150.41500801 50.8027395 150.39081833 47.05762196 150.36719131 C45.90121708 150.35059464 44.7448122 150.33399796 43.55336475 150.31689835 C35.83728218 150.1268001 35.83728218 150.1268001 28.61621571 152.49219131 C27.5002322 154.19045563 27.5002322 154.19045563 27.30371571 156.32031631 C27.17480946 157.12662491 27.04590321 157.9329335 26.91309071 158.76367569 C26.35231718 163.91762711 25.94509774 169.06847982 25.61621571 174.24219131 C25.06253652 182.23530543 24.44750414 190.09294588 22.98340321 197.97656631 C22.56321881 200.85527642 22.49171027 203.58706443 22.61621571 206.49219131 C24.50314196 208.37911757 27.78357249 207.62715403 30.29150867 207.63403702 C31.33788502 207.63924866 31.33788502 207.63924866 32.40540028 207.64456558 C33.92504416 207.6519346 35.44469889 207.65727385 36.96435642 207.66085625 C39.36810337 207.6680014 41.77164376 207.6836528 44.17532825 207.70219803 C51.01122679 207.75476114 57.84701396 207.80266005 64.68311024 207.81811905 C68.86011946 207.828186 73.03661248 207.85747831 77.21341801 207.89943886 C78.80740045 207.91177397 80.40145574 207.91686554 81.99548435 207.91464043 C84.22492997 207.9122942 86.45288865 207.93439893 88.68213367 207.96216202 C89.9515279 207.96802826 91.22092213 207.9738945 92.52878284 207.97993851 C95.61621571 208.49219131 95.61621571 208.49219131 97.52533436 210.37985611 C98.82159558 212.88987997 99.00339321 214.56770156 99.01465321 217.38672256 C99.02069569 218.33555313 99.02673817 219.2843837 99.03296375 220.26196671 C99.0191869 221.26606583 99.00541004 222.27016495 98.99121571 223.30469131 C98.98323963 224.33263809 98.97526356 225.36058487 98.96704578 226.41968155 C98.51871739 250.58968963 98.51871739 250.58968963 91.61621571 257.49219131 C89.96573652 257.59917921 88.3106876 257.63627767 86.65677357 257.64609146 C85.58272266 257.65469193 84.50867176 257.66329239 83.40207386 257.67215347 C81.61919468 257.6785434 81.61919468 257.6785434 79.80029774 257.68506241 C78.55651356 257.6932399 77.31272938 257.70141739 76.03125477 257.70984268 C71.89551591 257.73475428 67.75981369 257.75137283 63.62402821 257.76562881 C62.20230445 257.77098699 60.78058077 257.77636449 59.35885715 257.78176117 C53.44662638 257.80339412 47.53439838 257.82213235 41.62213802 257.83338356 C33.13847851 257.84963239 24.65527635 257.88282722 16.17178929 257.93978441 C10.21253574 257.97843525 4.25340476 257.99801039 -1.70597088 258.00330412 C-5.26821523 258.00696417 -8.82997218 258.01905297 -12.39208126 258.05140686 C-16.36455117 258.08697016 -20.33644331 258.08312896 -24.30907726 258.07568741 C-26.08588375 258.10029541 -26.08588375 258.10029541 -27.89858532 258.12540054 C-29.51812115 258.11292282 -29.51812115 258.11292282 -31.17037487 258.10019302 C-32.5801526 258.10515824 -32.5801526 258.10515824 -34.01841068 258.11022377 C-36.38378429 257.49219131 -36.38378429 257.49219131 -38.18252277 255.12997246 C-42.18489277 246.34139819 -38.88420745 234.99441294 -37.02050304 225.94189835 C-35.63098002 219.10967195 -34.63700318 212.29031559 -33.82128429 205.36719131 C-33.00220769 198.41984275 -32.11059642 191.51511803 -30.94628429 184.61719131 C-28.96950701 172.74727798 -27.71724538 160.77593818 -26.34862804 148.82422256 C-25.51407227 141.53933437 -24.61976249 134.26276038 -23.6992445 126.98825455 C-22.57706113 118.10903424 -21.46573405 109.22843733 -20.35204601 100.34814835 C-20.04031397 97.86436882 -19.72814074 95.38064462 -19.41552258 92.89697647 C-17.08255079 74.52243994 -17.08255079 74.52243994 -15.04296398 56.11368179 C-14.44835251 50.44986546 -13.35743667 44.98028937 -12.16894054 39.41406631 C-11.26409748 34.8943527 -10.56816749 30.36186772 -9.88378429 25.80469131 C-6.1197335 1.26357057 -6.1197335 1.26357057 0 0 Z " fill="#E34A47" transform="translate(2014.3837842941284,1660.5078086853027)"/>
<path d="M0 0 C1.86436203 -0.01401855 1.86436203 -0.01401855 3.76638794 -0.02832031 C7.1647229 -0.04422217 10.55810568 -0.01999502 13.95588541 0.02387094 C17.51474864 0.06163718 21.07351923 0.05214348 24.63253784 0.04904175 C30.60638312 0.05096598 36.57919955 0.088022 42.55273438 0.14746094 C49.45701757 0.21586443 56.36005596 0.23512689 63.26464474 0.22669232 C69.91231939 0.21916534 76.55957658 0.24013243 83.20714951 0.2762413 C86.03405384 0.29146807 88.86077363 0.29785079 91.68771744 0.29733658 C95.63341425 0.29867767 99.57802339 0.3422807 103.5234375 0.390625 C104.69652466 0.38678802 105.86961182 0.38295105 107.07824707 0.3789978 C114.94553068 0.52464315 114.94553068 0.52464315 118.38986206 3.41549683 C120.10118445 7.11451388 119.62877436 10.09595552 118.94482422 13.97607422 C118.715665 15.4937198 118.49047969 17.01197015 118.26904297 18.53076172 C118.1547998 19.29356445 118.04055664 20.05636719 117.92285156 20.84228516 C117.48313248 24.26100863 117.38605982 27.65652714 117.25732422 31.10107422 C116.89854824 36.81716605 116.38960881 42.53056913 112.63232422 47.10107422 C108.0748604 49.84176573 104.71870519 50.46986273 99.43359375 50.44165039 C98.74021408 50.44208847 98.04683441 50.44252655 97.33244324 50.44297791 C95.05971284 50.44090185 92.78773689 50.41762825 90.51513672 50.39404297 C88.93187869 50.38844277 87.34861544 50.38417467 85.76535034 50.38117981 C81.61256377 50.36976432 77.46009551 50.34032592 73.30743408 50.30706787 C69.06421209 50.2762956 64.8209383 50.26265923 60.57763672 50.24755859 C52.26238701 50.2154527 43.94739529 50.1642967 35.63232422 50.10107422 C32.39532771 63.03669634 32.39532771 63.03669634 30.36669922 76.19873047 C30.28357483 76.92934189 30.20045044 77.65995331 30.11480713 78.41270447 C29.86104103 80.66205682 29.62129583 82.91260796 29.38232422 85.16357422 C29.20879201 86.72422668 29.03431602 88.28477449 28.85888672 89.84521484 C28.4392196 93.59605961 28.03208044 97.34805742 27.63232422 101.10107422 C28.38765442 101.09219177 29.14298462 101.08330933 29.92120361 101.07415771 C37.04253509 100.99398033 44.16364747 100.93309437 51.28531265 100.89382553 C54.94658933 100.87295812 58.6074928 100.84465716 62.26855469 100.79931641 C65.80231133 100.75582659 69.33570921 100.73193074 72.86971283 100.72156525 C74.87283674 100.71058685 76.87581648 100.67936546 78.87872314 100.64788818 C80.09968689 100.64758606 81.32065063 100.64728394 82.57861328 100.64697266 C83.65338928 100.63809021 84.72816528 100.62920776 85.83551025 100.62005615 C89.32614551 101.22040306 90.49463925 102.32848647 92.63232422 105.10107422 C94.83949073 117.33607596 92.42722153 139.55411241 85.63232422 150.10107422 C82.46147834 151.2140192 79.45394699 151.21673006 76.11694336 151.19873047 C75.01222183 151.19542725 73.90750031 151.19212402 72.76930237 151.1887207 C71.58070114 151.18042236 70.39209991 151.17212402 69.16748047 151.16357422 C67.94202011 151.1597876 66.71655975 151.15600098 65.45396423 151.15209961 C60.20779371 151.13573605 54.96170079 151.10760331 49.71557617 151.08056641 C45.88704792 151.06250395 42.05853225 151.05039505 38.22998047 151.03857422 C37.04340347 151.03027588 35.85682648 151.02197754 34.6342926 151.01342773 C33.52641891 151.01012451 32.41854523 151.00682129 31.27709961 151.00341797 C30.3054335 150.99818115 29.3337674 150.99294434 28.33265686 150.98754883 C25.66492945 151.09970345 23.230662 151.50340797 20.63232422 152.10107422 C18.53024201 162.82995833 16.7360604 173.57717463 15.1539135 184.39447212 C14.77406353 186.98993927 14.38993807 189.58474423 14.004776 192.1794281 C12.91250174 199.54283721 11.82789427 206.90736994 10.74536133 214.2722168 C10.07799605 218.81052992 9.40606209 223.3481485 8.73144722 227.88538933 C8.47728741 229.60143513 8.22492193 231.31774774 7.97443962 233.03433418 C7.624993 235.42905786 7.26977009 237.82286145 6.91333008 240.21655273 C6.76287231 241.26318588 6.76287231 241.26318588 6.609375 242.33096313 C4.8837414 253.7843895 4.8837414 253.7843895 1.81109619 257.01728821 C-0.73619198 258.28438514 -2.38957443 258.46405923 -5.22802734 258.44165039 C-6.18872131 258.4414238 -7.14941528 258.4411972 -8.13922119 258.44096375 C-9.16851746 258.42547989 -10.19781372 258.40999603 -11.25830078 258.39404297 C-12.31805115 258.38979813 -13.37780151 258.38555328 -14.46966553 258.38117981 C-17.85259465 258.36439452 -21.23492687 258.32674177 -24.61767578 258.28857422 C-26.91193801 258.27352722 -29.20620958 258.25983885 -31.50048828 258.24755859 C-37.12308758 258.2144915 -42.74533904 258.16429325 -48.36767578 258.10107422 C-50.20303013 253.8229952 -50.71558086 250.2222294 -50.68017578 245.60107422 C-50.67671143 244.83915771 -50.67324707 244.07724121 -50.66967773 243.29223633 C-50.36220663 225.84452501 -47.97496861 208.29682063 -45.01611328 191.11669922 C-44.53884102 188.31870771 -44.1896446 185.5345708 -43.90673828 182.71044922 C-43.38529077 177.76706302 -42.38692543 172.96196677 -41.36767578 168.10107422 C-39.27569543 157.51343393 -37.30061012 146.91354154 -35.58276367 136.25878906 C-34.48277946 129.55363616 -33.17626299 122.89320042 -31.86767578 116.22607422 C-29.84511608 105.89013296 -28.14654665 95.54633612 -26.66308594 85.12109375 C-26.27405747 82.46091065 -25.82595054 79.81262587 -25.36767578 77.16357422 C-25.03320507 75.14292882 -24.69999615 73.12207438 -24.36767578 71.10107422 C-24.25955566 70.47507324 -24.15143555 69.84907227 -24.04003906 69.20410156 C-22.39680267 59.54980601 -21.30648934 49.93731474 -20.71923828 40.16357422 C-20.66362228 39.28038513 -20.60800629 38.39719604 -20.55070496 37.48724365 C-20.26979937 33.00943423 -20.01683678 28.53308216 -19.80932617 24.05126953 C-19.70883583 22.36467697 -19.60723651 20.67815002 -19.50439453 18.99169922 C-19.47926788 18.22978271 -19.45414124 17.46786621 -19.42825317 16.68286133 C-18.55755428 3.92779712 -12.1016699 -0.25364279 0 0 Z " fill="#E34A47" transform="translate(1688.36767578125,1659.89892578125)"/>
<path d="M0 0 C22.14395567 15.40115948 27.50248952 48.87056843 31.94311523 73.31054688 C33.816015 84.13208655 35.20082657 95.00374407 36.26831055 105.93310547 C36.54204264 108.71149539 36.83832665 111.48390209 37.14770508 114.25830078 C38.76786968 129.45585661 38.99188169 144.58191067 38.95046616 159.8565712 C38.94524431 161.90962278 38.94331673 163.96265918 38.94180298 166.01571655 C38.90886788 191.69319947 38.29859019 217.33082957 33.04199219 242.5625 C32.56729078 244.96433053 32.16440767 247.3734783 31.765625 249.7890625 C27.55537384 274.99496656 21.13682427 312.04400342 -0.3671875 328.6328125 C-11.00436204 334.96446401 -21.15893165 335.99657824 -33.3671875 334.6328125 C-37.90678728 333.26335077 -41.49620185 331.34376337 -45.3671875 328.6328125 C-46.33785156 328.01792969 -46.33785156 328.01792969 -47.328125 327.390625 C-65.21523709 314.35974244 -70.90277985 285.10710084 -74.3671875 264.6328125 C-75.00079351 259.99567923 -75.51245898 255.35067166 -75.9921875 250.6953125 C-76.12407471 249.42727783 -76.25596191 248.15924316 -76.3918457 246.8527832 C-77.38280418 236.74398185 -77.70834023 226.77894731 -77.3671875 216.6328125 C-74.55462469 216.60596938 -71.74231509 216.58605062 -68.9296875 216.5703125 C-68.12724609 216.56193359 -67.32480469 216.55355469 -66.49804688 216.54492188 C-64.45423529 216.5362982 -62.41034848 216.580531 -60.3671875 216.6328125 C-58.49243949 218.50756051 -58.77052824 221.64759439 -58.46484375 224.16796875 C-58.38221786 224.83888046 -58.29959198 225.50979218 -58.21446228 226.20103455 C-57.94883477 228.36532296 -57.6891449 230.53027659 -57.4296875 232.6953125 C-57.25886192 234.09705381 -57.0876421 235.49874714 -56.91601562 236.90039062 C-56.831436 237.59293945 -56.74685638 238.28548828 -56.65971375 238.99902344 C-56.48715509 240.41133015 -56.3143105 241.82360195 -56.14118958 243.23583984 C-55.70874598 246.77606892 -55.28812115 250.31691235 -54.89135742 253.86132812 C-53.99035083 261.7472518 -52.72519412 269.35720169 -50.5546875 277.0078125 C-50.20180664 278.34779297 -50.20180664 278.34779297 -49.84179688 279.71484375 C-47.92509337 286.64717297 -45.55373389 294.44626611 -40.3671875 299.6328125 C-36.9678179 300.27182502 -36.9678179 300.27182502 -33.3671875 298.6328125 C-24.59726569 286.79129972 -21.73588602 269.25477633 -18.85546875 255.03417969 C-18.53014215 253.43422347 -18.19680981 251.83587411 -17.85546875 250.23925781 C-14.24158928 233.24994848 -12.85968452 216.11231161 -11.54490662 198.82476807 C-11.41224157 197.18850127 -11.26586137 195.55333573 -11.11244202 193.91888428 C-10.44194769 186.59046413 -10.20668178 179.33369089 -10.19921875 171.9765625 C-10.19589035 170.79477417 -10.19256195 169.61298584 -10.18913269 168.39538574 C-10.18409815 165.90112696 -10.18172328 163.40686152 -10.18188477 160.91259766 C-10.17972546 157.19812069 -10.16160744 153.48395479 -10.14257812 149.76953125 C-10.07493282 120.96278805 -12.16089691 92.73063426 -18.3046875 64.5703125 C-18.54541992 63.46421631 -18.78615234 62.35812012 -19.03417969 61.21850586 C-22.20881348 45.28227855 -22.20881348 45.28227855 -30.3671875 31.6328125 C-33.79502054 30.05927108 -33.79502054 30.05927108 -37.3671875 30.6328125 C-46.90529641 36.76445394 -48.88582192 52.24462986 -51.17578125 62.58203125 C-53.05494579 71.67451827 -54.21586897 80.88166103 -55.45703125 90.078125 C-58.38586566 111.65149066 -58.38586566 111.65149066 -60.3671875 113.6328125 C-63.22986317 113.70606418 -66.0679065 113.72519455 -68.9296875 113.6953125 C-69.73599609 113.69080078 -70.54230469 113.68628906 -71.37304688 113.68164062 C-73.37112506 113.66981768 -75.36916533 113.65188164 -77.3671875 113.6328125 C-79.03922958 79.01534876 -71.25763509 34.51218413 -48.3828125 7.26953125 C-35.4684483 -6.72102997 -16.50179778 -9.53074129 0 0 Z " fill="#080808" transform="translate(1754.3671875,1093.3671875)"/>
<path d="M0 0 C18.09971008 14.47976806 24.23949243 36.65065992 29.8125 58.25 C30.12058594 59.43851563 30.42867187 60.62703125 30.74609375 61.8515625 C34.68826327 78.64152802 36.44431578 96.02716978 35.8125 113.25 C33.20771117 113.3309313 30.60543347 113.39045434 28 113.4375 C27.26201172 113.46263672 26.52402344 113.48777344 25.76367188 113.51367188 C20.35752896 113.58705843 20.35752896 113.58705843 18.13745117 112.21411133 C16.11756969 109.21983336 16.08863876 106.03906681 15.8203125 102.53125 C15.67439616 100.95202956 15.52805858 99.37284799 15.38134766 97.79370117 C15.309422 96.96921478 15.23749634 96.14472839 15.16339111 95.29525757 C13.9155718 81.23529078 12.4201629 67.66188388 7.8125 54.25 C7.57772949 53.53102539 7.34295898 52.81205078 7.10107422 52.07128906 C3.36649678 40.02758491 3.36649678 40.02758491 -4.1875 30.25 C-7.30883744 29.11521065 -7.30883744 29.11521065 -10.1875 29.25 C-10.8475 29.25 -11.5075 29.25 -12.1875 29.25 C-12.579375 30.44625 -12.97125 31.6425 -13.375 32.875 C-14.71063406 36.90710282 -16.15749546 40.88918521 -17.625 44.875 C-30.1974122 80.33371944 -31.39298484 119.35039185 -31.31787109 156.65014648 C-31.31249909 159.81303686 -31.31786217 162.97578568 -31.32421875 166.13867188 C-31.33229435 184.77524656 -30.41235657 203.16446854 -28.375 221.6875 C-28.28790771 222.48916595 -28.20081543 223.29083191 -28.11108398 224.11679077 C-26.77318281 236.31998389 -25.05693371 248.30163239 -22.1875 260.25 C-21.87693874 261.62094318 -21.56703729 262.992036 -21.2578125 264.36328125 C-19.57139192 271.64036173 -17.4880604 278.77088107 -15.1875 285.875 C-14.83196045 286.99479248 -14.83196045 286.99479248 -14.46923828 288.13720703 C-12.83810151 293.01732906 -10.89553393 297.54196607 -7.1875 301.25 C-4.85452567 301.29092937 -2.52044775 301.29241723 -0.1875 301.25 C13.45141423 275.0418903 15.93419437 245.16850595 18.8125 216.25 C24.4225 216.25 30.0325 216.25 35.8125 216.25 C36.11279887 231.68758635 36.20198516 246.66820931 33.27001953 261.86572266 C32.79384387 264.34722292 32.36230043 266.83411183 31.93359375 269.32421875 C28.15883292 290.48062403 21.23623201 314.97515845 3.74609375 328.89453125 C-5.48323687 335.16180664 -17.38737402 335.6301378 -28.1875 334.25 C-40.41177766 330.68175913 -48.37344273 321.64619116 -54.37109375 310.82836914 C-65.91308331 288.99806883 -71.42417134 264.06728465 -74.828125 239.77734375 C-75.09239156 237.91886047 -75.37045368 236.06232567 -75.65625 234.20703125 C-77.11548801 224.53818704 -78.06499589 214.87026085 -78.8125 205.125 C-78.87786957 204.27350372 -78.94323914 203.42200745 -79.0105896 202.54470825 C-81.34960173 171.15575191 -80.97389976 139.59699725 -78.1875 108.25 C-78.11273437 107.37923828 -78.03796875 106.50847656 -77.9609375 105.61132812 C-77.50468337 100.47001997 -76.9045484 95.36121393 -76.1875 90.25 C-76.05617676 89.31027344 -75.92485352 88.37054687 -75.78955078 87.40234375 C-73.74747554 73.12361212 -71.14781895 59.12651416 -67.1875 45.25 C-66.99575195 44.57291992 -66.80400391 43.89583984 -66.60644531 43.19824219 C-61.45248496 25.42994169 -53.5794866 7.57401387 -37.01953125 -2.00390625 C-25.55819194 -7.51379634 -10.93410072 -6.00303569 0 0 Z " fill="#070707" transform="translate(1262.1875,1093.75)"/>
<path d="M0 0 C0.84137512 -0.00960754 1.68275024 -0.01921509 2.54962158 -0.02911377 C3.46104919 -0.03336365 4.37247681 -0.03761353 5.31152344 -0.04199219 C6.24889343 -0.04769226 7.18626343 -0.05339233 8.15203857 -0.05926514 C10.13927072 -0.06872284 12.12651861 -0.07525217 14.11376953 -0.07910156 C17.1448128 -0.08878386 20.17517133 -0.11979035 23.20605469 -0.15136719 C25.13704025 -0.15789959 27.06803065 -0.16314913 28.99902344 -0.16699219 C29.90235413 -0.17933899 30.80568481 -0.19168579 31.73638916 -0.20440674 C37.88869633 -0.18278609 42.38805368 0.62828805 46.92089844 5.16113281 C46.95252991 7.14170837 46.95252991 7.14170837 46.64379883 9.57104492 C46.53367462 10.47168671 46.42355042 11.37232849 46.31008911 12.30026245 C46.18165619 13.24434967 46.05322327 14.18843689 45.92089844 15.16113281 C45.80446991 16.05454376 45.68804138 16.94795471 45.56808472 17.86843872 C45.17886366 20.78212761 44.76892109 23.6923314 44.35449219 26.60253906 C44.20025787 27.69735092 44.04602356 28.79216278 43.88711548 29.92015076 C43.37935545 33.52156984 42.86883778 37.12259259 42.35839844 40.72363281 C41.99742136 43.28154468 41.63666694 45.83948798 41.27612305 48.39746094 C40.52808681 53.70309065 39.77911561 59.00858679 39.02929688 64.31396484 C37.01354841 78.57833374 35.00689885 92.84399421 33.01049805 107.11108398 C32.84769852 108.27449814 32.68489899 109.43791229 32.51716614 110.63658142 C32.18358153 113.02073591 31.85007582 115.40490143 31.51664734 117.78907776 C30.47786883 125.20907869 29.43041711 132.6277989 28.37658978 140.04567337 C27.52807108 146.02045852 26.68504963 151.99600518 25.8455019 157.97205734 C25.33742613 161.58676748 24.82670671 165.20105772 24.30935669 168.81445312 C23.73412078 172.83252425 23.17086313 176.85219151 22.60839844 180.87207031 C22.43694809 182.05602386 22.26549774 183.23997742 22.08885193 184.45980835 C19.96428904 196.01080611 19.96428904 196.01080611 21.92089844 207.16113281 C23.24181488 207.17326309 23.24181488 207.17326309 24.5894165 207.18563843 C32.88820193 207.26357794 41.18682499 207.35086675 49.48540115 207.4486599 C53.75179034 207.49860656 58.01815497 207.54493673 62.28466797 207.58300781 C66.4020619 207.61988124 70.51924951 207.66624675 74.63646698 207.71919632 C76.20729707 207.73772934 77.77817137 207.75284136 79.34906769 207.76447678 C81.54933297 207.78135809 83.74912688 207.81039699 85.94921875 207.84228516 C87.82785614 207.86227066 87.82785614 207.86227066 89.7444458 207.88265991 C92.72200969 208.14369666 94.41877364 208.59346069 96.92089844 210.16113281 C97.66685475 219.42756786 96.45601948 227.96193333 94.67089844 237.03613281 C94.46634033 238.10532959 94.26178223 239.17452637 94.05102539 240.27612305 C93.83792725 241.30809814 93.6248291 242.34007324 93.40527344 243.40332031 C93.21674805 244.31968262 93.02822266 245.23604492 92.83398438 246.18017578 C92.035203 248.78796202 91.09522579 250.93039479 89.86383057 253.34744263 C89.50081974 254.06304415 89.13780891 254.77864567 88.76379776 255.51593208 C88.48564098 256.05884832 88.20748421 256.60176456 87.92089844 257.16113281 C71.56165994 257.25455221 55.2025079 257.32510013 38.84306717 257.3683815 C31.24717546 257.38901149 23.65144943 257.41714021 16.05566406 257.46289062 C9.43557652 257.5027453 2.81560895 257.52856246 -3.80459523 257.53748679 C-7.31037958 257.54270396 -10.81582067 257.55497458 -14.32149506 257.58405304 C-18.233927 257.61624254 -22.14602236 257.61709309 -26.05859375 257.61523438 C-27.2224057 257.62961548 -28.38621765 257.64399658 -29.58529663 257.65881348 C-30.6509787 257.65331482 -31.71666077 257.64781616 -32.81463623 257.64215088 C-33.74011639 257.64583805 -34.66559654 257.64952522 -35.61912155 257.65332413 C-38.87660913 257.00156798 -40.04956058 255.74442765 -42.07910156 253.16113281 C-43.40159945 247.682213 -42.9549635 243.51479816 -41.69799805 238.07568359 C-41.0676162 235.10704512 -40.60642419 232.15911439 -40.18847656 229.15332031 C-40.01469482 227.90824707 -39.84091309 226.66317383 -39.66186523 225.38037109 C-39.56803558 224.70041077 -39.47420593 224.02045044 -39.37753296 223.31988525 C-39.06791049 221.08018038 -38.75405064 218.84109627 -38.43969727 216.60205078 C-32.70123254 175.59057633 -27.77267766 134.47739754 -22.8039856 93.3671875 C-21.7224614 84.42347689 -20.62625389 75.48188872 -19.5032196 66.54328918 C-19.12010072 63.48808324 -18.74273152 60.43224053 -18.36816406 57.37597656 C-16.79841578 44.79464835 -14.85586854 32.31229483 -12.56298828 19.84228516 C-12.22137361 17.94944342 -11.89645419 16.05355192 -11.58349609 14.15576172 C-11.41833496 13.17526855 -11.25317383 12.19477539 -11.08300781 11.18457031 C-10.93806885 10.29688965 -10.79312988 9.40920898 -10.64379883 8.49462891 C-9.87276534 5.30849051 -8.45129889 3.38506781 -6.07910156 1.16113281 C-3.8066818 0.02492293 -2.52436354 0.0232499 0 0 Z " fill="#E34A47" transform="translate(2177.0791015625,1660.8388671875)"/>
<path d="M0 0 C-0.51938182 5.94892601 -1.2259702 11.74474529 -2.453125 17.59765625 C-2.59354721 18.27058212 -2.73396942 18.943508 -2.87864685 19.63682556 C-3.32893916 21.78023305 -3.78836888 23.92150793 -4.25 26.0625 C-4.40651031 26.7944458 -4.56302063 27.5263916 -4.72427368 28.28051758 C-12.49040405 64.49040405 -12.49040405 64.49040405 -18 70 C-21.08565005 70.2600804 -24.15451941 70.45577746 -27.24609375 70.61328125 C-28.24234268 70.66760818 -29.23859161 70.72193512 -30.26502991 70.77790833 C-33.65560493 70.96112394 -37.04651729 71.13700157 -40.4375 71.3125 C-42.85157124 71.44042761 -45.26563351 71.56852471 -47.6796875 71.69677734 C-56.1192585 72.14178504 -64.55953693 72.5723145 -73 73 C-73.81117531 73.04115181 -74.62235062 73.08230362 -75.45810699 73.12470245 C-87.91211978 73.75624224 -100.36660051 74.37798854 -112.82146072 74.99258041 C-115.46334949 75.1231881 -118.1051984 75.25457695 -120.74703979 75.38613892 C-139.13887605 76.30045527 -157.52543265 77.16936142 -175.93444824 77.65213013 C-182.43868166 77.83304265 -188.88530999 78.19457279 -195.36608887 78.77523804 C-201.0700987 79.26198356 -206.77877828 79.30833322 -212.5 79.375 C-213.7478125 79.41238281 -214.995625 79.44976563 -216.28125 79.48828125 C-217.4775 79.49988281 -218.67375 79.51148438 -219.90625 79.5234375 C-221.51983398 79.5531665 -221.51983398 79.5531665 -223.16601562 79.58349609 C-226 79 -226 79 -228.30615234 76.6081543 C-235.87365549 64.95585736 -236.34877797 51.24540347 -236.3125 37.75 C-236.32861328 36.53570313 -236.34472656 35.32140625 -236.36132812 34.0703125 C-236.36496938 27.3849772 -236.24395971 21.92790954 -233 16 C-228.46234502 12.28007138 -224.33604925 11.21494496 -218.6328125 10.62109375 C-217.81798401 10.52384003 -217.00315552 10.4265863 -216.16363525 10.3263855 C-213.48576346 10.01262708 -210.80590741 9.72407322 -208.125 9.4375 C-206.24034799 9.22528954 -204.35574579 9.01263627 -202.47119141 8.79956055 C-184.85494983 6.84639352 -167.20264575 5.46110467 -149.51855469 4.29980469 C-145.46149283 4.03330113 -141.40655579 3.7417583 -137.3515625 3.4453125 C-91.62176287 0.2091247 -45.82319265 -0.34508244 0 0 Z " fill="#060505" transform="translate(1491,1214)"/>
<path d="M0 0 C1.15468025 0.01061211 1.15468025 0.01061211 2.33268738 0.0214386 C4.77879178 0.049312 7.22256259 0.11202988 9.66796875 0.17578125 C11.33134702 0.20087357 12.99476137 0.22368512 14.65820312 0.24414062 C18.72485032 0.29911454 22.78976464 0.38533198 26.85546875 0.48828125 C25.52941238 6.85335184 23.87576048 13.06968095 22.08862305 19.32006836 C16.15693753 40.12874799 11.75289376 61.05980179 9.21142578 82.56054688 C8.84080994 85.60884946 8.42400596 88.64901796 8.0078125 91.69140625 C6.02187342 107.19447021 5.5846006 122.49825398 5.60546875 138.11328125 C5.6062442 139.08297852 5.60701965 140.05267578 5.6078186 141.05175781 C5.64769099 158.2445861 6.17624079 175.39295369 8.10546875 192.48828125 C8.23260254 193.61709717 8.35973633 194.74591309 8.49072266 195.90893555 C9.99357129 208.55193395 12.29086666 221.02205162 14.85546875 233.48828125 C15.16121826 234.97980713 15.16121826 234.97980713 15.47314453 236.50146484 C18.16697954 249.43578646 21.63614403 261.97203388 25.85546875 274.48828125 C26.48388672 276.35806641 26.48388672 276.35806641 27.125 278.265625 C27.8067036 280.29146503 28.49426393 282.31535832 29.19140625 284.3359375 C29.85546875 286.48828125 29.85546875 286.48828125 29.85546875 288.48828125 C24.57202771 288.66206609 19.29026934 288.78869022 14.00463867 288.87280273 C12.20909631 288.90788266 10.41375216 288.95556207 8.61889648 289.01635742 C-6.18102224 289.50489843 -6.18102224 289.50489843 -10.79833984 287.11425781 C-12.64361035 285.34088097 -13.88055807 283.70566423 -15.14453125 281.48828125 C-15.79421875 280.49570313 -16.44390625 279.503125 -17.11328125 278.48046875 C-28.8348181 254.61876874 -33.97593021 228.5572147 -38.14453125 202.48828125 C-38.25925781 201.78558105 -38.37398437 201.08288086 -38.4921875 200.35888672 C-40.70731273 186.67908642 -41.29986856 172.9936213 -41.3125 159.15625 C-41.3158284 157.8407869 -41.3191568 156.52532379 -41.32258606 155.16999817 C-41.32851231 152.40279317 -41.33043305 149.63561908 -41.32983398 146.8684082 C-41.32975328 144.09295049 -41.33661835 141.31765979 -41.3503418 138.54223633 C-41.46402033 115.14249671 -40.80469737 91.858229 -36.89453125 68.73828125 C-36.67982178 67.44607666 -36.4651123 66.15387207 -36.24389648 64.82250977 C-32.53068148 43.35344832 -27.60874207 22.3673864 -13.14453125 5.48828125 C-12.44118652 4.61929199 -11.7378418 3.75030273 -11.01318359 2.85498047 C-7.34863097 -0.16835341 -4.53764377 -0.15829169 0 0 Z " fill="#070707" transform="translate(1160.14453125,1115.51171875)"/>
<path d="M0 0 C4.99854577 -0.19870375 9.99476527 -0.3433522 14.99633789 -0.43945312 C16.69498764 -0.47953163 18.393364 -0.53401432 20.09106445 -0.60351562 C34.11308588 -1.16291572 34.11308588 -1.16291572 38.56933594 1.58349609 C40.40405448 3.62779859 41.70177033 5.58516812 43 8 C43.75235477 9.11735547 44.50493753 10.23455748 45.2578125 11.3515625 C56.25010069 30.62256146 60.91230655 52.19714159 64 74 C64.12696259 74.87981033 64.25392517 75.75962067 64.38473511 76.66609192 C67.09745577 96.07212749 67.50114927 115.2561251 67.44604492 134.81176758 C67.43689992 138.21306084 67.44369986 141.61366446 67.46655273 145.01489258 C67.5885224 163.29435936 67.22071458 181.35014854 65.15234375 199.52734375 C65.06976255 200.25419813 64.98718136 200.98105251 64.9020977 201.72993279 C57.16227059 268.18273777 57.16227059 268.18273777 36 287 C32.77396455 288.61301773 29.25289962 288.12053599 25.7109375 288.09765625 C24.48330185 288.09553383 24.48330185 288.09553383 23.23086548 288.09336853 C20.61220675 288.0877629 17.99363296 288.07520948 15.375 288.0625 C13.60156373 288.05748572 11.82812613 288.05292269 10.0546875 288.04882812 C5.70309218 288.03779164 1.3515605 288.02052325 -3 288 C-2.62190186 286.82606689 -2.24380371 285.65213379 -1.85424805 284.44262695 C-0.43432887 280.02913639 0.97852485 275.61340927 2.3894043 271.19702148 C2.99754639 269.29667798 3.60752756 267.39692187 4.21948242 265.49780273 C7.57502006 255.07999699 10.84441363 244.74577226 13 234 C13.21180908 232.97737061 13.42361816 231.95474121 13.6418457 230.90112305 C26.52806378 167.0014231 24.56647744 98.32192706 9 35 C8.76635742 34.04335449 8.53271484 33.08670898 8.29199219 32.10107422 C5.66062727 21.36329983 2.94662014 10.65596712 0 0 Z " fill="#070707" transform="translate(1788,1116)"/>
<path d="M0 0 C15.79674154 14.90469026 16.28760285 46.09267215 18.375 66.5 C18.62688229 68.94369166 18.8805494 71.38713737 19.13961792 73.83007812 C19.29866415 75.33092848 19.45356049 76.8322259 19.60379028 78.33398438 C19.70204329 81.70834898 19.70204329 81.70834898 21.25 84.5 C23.59852138 84.85242628 25.95437981 85.15638419 28.3125 85.4375 C44.20046309 87.45046309 44.20046309 87.45046309 48.25 91.5 C49.17986636 94.28959907 49.38107546 95.99279051 49.39526367 98.8762207 C49.40164352 99.7575618 49.40802338 100.63890289 49.41459656 101.54695129 C49.41570938 102.49696518 49.4168222 103.44697906 49.41796875 104.42578125 C49.42296135 105.89630196 49.42296135 105.89630196 49.42805481 107.39653015 C49.43311925 109.47194957 49.43546328 111.54737714 49.43530273 113.62280273 C49.43748429 116.78968845 49.4556316 119.95622303 49.47460938 123.12304688 C49.47754442 125.14062381 49.47952847 127.1582024 49.48046875 129.17578125 C49.48765427 130.11972244 49.49483978 131.06366364 49.50224304 132.03620911 C49.48306012 137.59037035 49.41948491 142.76456251 45.8125 147.3125 C43.00836204 149.44364485 40.29917133 149.63943651 36.90625 149.74609375 C36.07222656 149.77896484 35.23820312 149.81183594 34.37890625 149.84570312 C32.62643397 149.90689644 30.87382114 149.96418895 29.12109375 150.01757812 C28.28707031 150.05173828 27.45304687 150.08589844 26.59375 150.12109375 C25.83255859 150.1461499 25.07136719 150.17120605 24.28710938 150.19702148 C21.94121653 150.39800055 21.94121653 150.39800055 19.25 152.5 C18.49683347 154.78682737 18.49683347 154.78682737 18.15234375 157.48828125 C17.99185547 158.49850342 17.83136719 159.50872559 17.66601562 160.54956055 C17.50810547 161.62633057 17.35019531 162.70310059 17.1875 163.8125 C16.92936523 165.45375854 16.92936523 165.45375854 16.66601562 167.12817383 C15.96883974 171.58791255 15.3038517 176.05127246 14.69140625 180.5234375 C13.17713613 191.37794014 9.83060439 201.34097802 5.8125 211.5 C5.53639893 212.21833008 5.26029785 212.93666016 4.97583008 213.67675781 C2.80222346 218.99767663 0.25105515 223.05376783 -5.125 225.64453125 C-14.96990476 228.14970791 -25.6320414 228.38086699 -35.75 227.5 C-37.31550735 225.93449265 -36.967294 224.43165728 -37.015625 222.25390625 C-36.94580823 215.6922933 -35.23176067 209.7283499 -33.5 203.4375 C-25.02074093 170.90840591 -23.59061125 138.64093087 -23.4375 105.1875 C-23.42787231 104.00574188 -23.41824463 102.82398376 -23.4083252 101.60641479 C-23.29916016 85.95087215 -24.19404272 70.76426066 -26.37345886 55.25875854 C-26.87271232 51.60093845 -27.29576182 47.93605655 -27.71078491 44.26785278 C-29.06047216 32.80939682 -31.64252214 21.67000175 -34.41308594 10.48754883 C-34.71375977 9.26318115 -35.01443359 8.03881348 -35.32421875 6.77734375 C-35.59838623 5.68671631 -35.87255371 4.59608887 -36.1550293 3.47241211 C-36.70667097 0.71646734 -36.86835113 -1.70075264 -36.75 -4.5 C-23.51294965 -7.4184048 -11.40691485 -8.43662411 0 0 Z " fill="#060506" transform="translate(1894.75,1148.5)"/>
<path d="M0 0 C5.88224565 -0.27257043 8.96139212 0.37928909 13.48828125 4.19140625 C13.11556295 9.03674418 12.2405685 13.14567107 10.6015625 17.7265625 C8.51296656 23.87616103 7.10760398 29.99943011 5.92578125 36.37890625 C5.71526123 37.49676514 5.50474121 38.61462402 5.2878418 39.76635742 C3.14245564 51.51364476 1.70055234 63.31618042 0.48828125 75.19140625 C0.31595228 76.74894585 0.14358608 78.30648134 -0.02880859 79.86401367 C-1.38846673 92.56357269 -1.83862033 105.11212502 -1.76171875 117.87890625 C-1.75606903 119.31598938 -1.75606903 119.31598938 -1.75030518 120.78210449 C-1.60511623 152.42278245 0.79544885 184.15134198 11.48828125 214.19140625 C12.2726517 216.58284188 13.04404243 218.97858382 13.80078125 221.37890625 C14.12691406 222.38308594 14.45304687 223.38726563 14.7890625 224.421875 C15.47446014 227.13666231 15.62577587 229.40586706 15.48828125 232.19140625 C9.74010006 233.82722652 4.58106135 234.54739666 -1.38671875 234.50390625 C-2.17393311 234.4997168 -2.96114746 234.49552734 -3.7722168 234.49121094 C-12.22578179 234.32738554 -19.16267856 233.12194058 -25.51171875 227.19140625 C-27.9279742 223.04681749 -29.67805357 218.62064734 -31.51171875 214.19140625 C-31.88425781 213.33546875 -32.25679687 212.47953125 -32.640625 211.59765625 C-39.0298668 195.76235893 -42.51171875 175.22960331 -42.51171875 158.19140625 C-45.43468888 157.35704553 -48.0661966 157.05892062 -51.1015625 157.015625 C-51.96845703 156.99177734 -52.83535156 156.96792969 -53.72851562 156.94335938 C-55.53817349 156.9004888 -57.34814337 156.86918464 -59.15820312 156.84960938 C-60.02638672 156.82189453 -60.89457031 156.79417969 -61.7890625 156.765625 C-62.57531006 156.75104248 -63.36155762 156.73645996 -64.17163086 156.72143555 C-67.47656069 155.9728698 -69.14211672 154.58809089 -71.51171875 152.19140625 C-74.72043889 143.18952045 -73.85277416 132.16243895 -73.82739258 122.67724609 C-73.82418787 120.1672185 -73.84794313 117.65832407 -73.87304688 115.1484375 C-73.87531636 113.53776188 -73.876025 111.92708314 -73.875 110.31640625 C-73.88420975 109.57366455 -73.89341949 108.83092285 -73.90290833 108.06567383 C-73.85431842 102.61731971 -72.66280471 99.34249221 -68.82421875 95.50390625 C-61.27027866 91.21653485 -52.9242234 91.97873057 -44.51171875 92.19140625 C-44.43131348 91.46252197 -44.3509082 90.7336377 -44.26806641 89.98266602 C-40.94869361 59.92127058 -40.94869361 59.92127058 -39.96484375 51.90234375 C-39.66556487 49.45135293 -39.38395917 46.9981318 -39.12109375 44.54296875 C-37.42050757 30.27694028 -33.08771704 15.72000621 -21.42578125 6.47265625 C-14.53065406 1.85714254 -8.07480474 0.61534282 0 0 Z " fill="#060506" transform="translate(1104.51171875,1141.80859375)"/>
<path d="M0 0 C2.06021087 -0.00980236 4.11946073 -0.04099083 6.17944336 -0.07226562 C19.21338559 -0.18145624 19.21338559 -0.18145624 25.36499023 3.24023438 C28.01143982 6.81519517 28.74774282 9.37720506 28.76342773 13.79101562 C28.76979248 14.86802734 28.77615723 15.94503906 28.78271484 17.0546875 C28.76861572 18.20904297 28.7545166 19.36339844 28.73999023 20.55273438 C28.72911377 21.76767578 28.7182373 22.98261719 28.70703125 24.234375 C28.50234029 36.08018831 27.20320671 47.54893631 25.36499023 59.24023438 C25.1261714 60.77684781 24.88740522 62.31346942 24.64868164 63.85009766 C21.55805772 83.65053103 18.1999791 103.39863983 14.61499023 123.11523438 C10.51236444 145.39099062 10.51236444 145.39099062 7.88842773 167.87695312 C7.77011597 169.29983643 7.77011597 169.29983643 7.64941406 170.75146484 C7.5071361 172.54739146 7.38054135 174.3446703 7.27392578 176.14306641 C6.73783386 183.22397654 4.87080058 189.34595259 -0.63500977 194.11523438 C-9.26216915 200.22613894 -18.85587346 199.46884589 -29.13500977 199.55273438 C-30.3196582 199.58173828 -31.50430664 199.61074219 -32.72485352 199.640625 C-39.87406385 199.69243087 -44.57720822 199.1273237 -50.63500977 195.24023438 C-52.63500977 193.24023438 -52.63500977 193.24023438 -52.88044739 190.81323242 C-52.80700428 183.78272754 -52.26345704 177.00098655 -51.20922852 170.05273438 C-51.06097122 169.02954102 -50.91271393 168.00634766 -50.75996399 166.95214844 C-50.28877215 163.71361918 -49.80586142 160.47696856 -49.32250977 157.24023438 C-49.0098872 155.10362867 -48.69803315 152.96691038 -48.38696289 150.83007812 C-47.11124704 142.09423979 -45.80559924 133.36298008 -44.48786926 124.63339233 C-43.25998958 116.4944304 -42.07133247 108.35080497 -40.91625977 100.20117188 C-40.77029861 99.17163391 -40.62433746 98.14209595 -40.47395325 97.08135986 C-39.87695734 92.86596406 -39.28074257 88.65046173 -38.68725586 84.43457031 C-37.25133986 74.24348997 -35.81446725 64.05992187 -34.07250977 53.91601562 C-33.0288441 47.83691137 -32.13585879 41.75307074 -31.35375977 35.63476562 C-31.25212524 34.84356323 -31.15049072 34.05236084 -31.04577637 33.23718262 C-30.63491835 30.02145067 -30.2272978 26.80542605 -29.83276367 23.58764648 C-29.53650969 21.18541311 -29.22735198 18.78511633 -28.91625977 16.38476562 C-28.83178589 15.66803177 -28.74731201 14.95129791 -28.66027832 14.21284485 C-28.0221172 9.38641289 -26.70105461 5.59221433 -24.63500977 1.24023438 C-16.42769196 0.31114482 -8.25416187 0.02371602 0 0 Z " fill="#FDFDFD" transform="translate(1331.635009765625,1660.759765625)"/>
<path d="M0 0 C1.03020264 -0.02143066 2.06040527 -0.04286133 3.12182617 -0.06494141 C9.06935381 -0.09108438 13.3301777 0.34472131 18.5625 3.25 C22.18700367 6.99142314 21.78971165 10.86441578 21.73852539 15.77587891 C21.37035943 23.04217798 20.30126889 30.23426828 19.3125 37.4375 C19.08331094 39.14532022 18.85430871 40.85316551 18.62548828 42.56103516 C17.24955242 52.73228985 15.70576657 62.86157447 13.94018555 72.97314453 C12.80071206 79.56815683 11.90966784 86.16648443 11.125 92.8125 C9.94152608 102.83634153 8.38530515 112.78133558 6.73278809 122.73620605 C5.09838436 132.60537295 3.68091361 142.47434414 2.55078125 152.4140625 C1.94338752 157.66042584 1.10549701 162.78337407 0.02416992 167.95288086 C-0.60369779 171.07694608 -1.02702377 174.21579902 -1.4375 177.375 C-1.6128125 178.56351563 -1.788125 179.75203125 -1.96875 180.9765625 C-2.24164361 182.88226956 -2.4857979 184.79335141 -2.65625 186.7109375 C-3.09383713 189.88344416 -3.98770814 191.85922656 -6.40234375 193.95703125 C-18.07834659 201.53813262 -32.02999796 203.15523387 -45.57421875 200.67578125 C-50.92317752 199.16464043 -55.68503486 197.42547397 -59.25 193 C-61.1351927 188.63429058 -61.00136982 184.93558114 -59.5012207 180.45117188 C-57.48888338 174.39522352 -56.66195827 168.03438521 -55.625 161.75 C-55.49499603 160.96765991 -55.36499207 160.18531982 -55.23104858 159.37927246 C-52.32289979 141.60175775 -50.70157438 123.71628288 -49.17456055 105.77539062 C-47.90578443 90.88858268 -46.33901289 76.06976847 -44.4375 61.25 C-44.34453644 60.52244507 -44.25157288 59.79489014 -44.15579224 59.04528809 C-38.27188548 13.41195707 -38.27188548 13.41195707 -29.4375 3.25 C-21.9436382 -1.74590787 -8.81945058 0.10305755 0 0 Z " fill="#FDFDFD" transform="translate(1113.4375,1659.75)"/>
<path d="M0 0 C1.97939575 -0.00616333 1.97939575 -0.00616333 3.9987793 -0.01245117 C5.43278721 -0.00428036 6.86678865 0.00510534 8.30078125 0.015625 C9.38463608 0.01977921 9.38463608 0.01977921 10.49038696 0.02401733 C23.2756749 0.08154732 35.9131484 0.72849219 48.61328125 2.265625 C49.59055176 2.38341309 50.56782227 2.50120117 51.57470703 2.62255859 C54.5068283 2.98628046 57.43537017 3.36951215 60.36328125 3.765625 C61.25168701 3.88397705 62.14009277 4.0023291 63.05541992 4.12426758 C64.2828894 4.30252075 64.2828894 4.30252075 65.53515625 4.484375 C66.2528418 4.58685547 66.97052734 4.68933594 67.70996094 4.79492188 C69.61328125 5.265625 69.61328125 5.265625 72.61328125 7.265625 C73.51348149 9.96622573 73.74801295 11.57088412 73.77441406 14.34716797 C73.78402161 15.16587372 73.79362915 15.98457947 73.80352783 16.82809448 C73.80777771 17.71240143 73.81202759 18.59670837 73.81640625 19.5078125 C73.82210632 20.42716583 73.8278064 21.34651917 73.8336792 22.29373169 C73.84313241 24.24561412 73.84966445 26.19751254 73.85351562 28.14941406 C73.86313131 31.09469829 73.89411332 34.03925725 73.92578125 36.984375 C74.04027692 56.95793322 74.04027692 56.95793322 70.61328125 66.265625 C70.32187256 67.19310547 70.03046387 68.12058594 69.73022461 69.07617188 C67.12499621 71.77063483 66.22014731 71.65157262 62.55786133 71.83740234 C60.39504314 71.82970846 58.23219925 71.79049512 56.0703125 71.7265625 C54.91110794 71.70822357 53.75190338 71.68988464 52.55757141 71.67098999 C41.20507432 71.41328014 29.93810748 70.42771429 18.6499939 69.24227905 C12.91116295 68.63972455 7.16824751 68.07838216 1.42578125 67.51171875 C0.31188522 67.40070328 -0.8020108 67.28968781 -1.94966125 67.17530823 C-14.74311821 65.91096284 -27.55213787 65.00035701 -40.38671875 64.265625 C-39.94416733 57.82323711 -38.31624562 53.37760724 -35.19921875 47.765625 C-34.76504639 46.96318359 -34.33087402 46.16074219 -33.88354492 45.33398438 C-9.1274189 0.01739384 -9.1274189 0.01739384 0 0 Z " fill="#060506" transform="translate(1645.38671875,1221.734375)"/>
<path d="M0 0 C7.18966601 -0.15204003 14.3789182 -0.25716901 21.56982422 -0.32958984 C24.01627087 -0.35977686 26.46260917 -0.40073133 28.90869141 -0.45263672 C32.42377426 -0.52536257 35.93742757 -0.55943822 39.453125 -0.5859375 C40.5480426 -0.61690521 41.64296021 -0.64787292 42.77105713 -0.67977905 C45.63474605 -0.68105045 48.20366304 -0.61645913 51 0 C53.89693934 2.89746462 54.77350039 4.73091925 55.48583984 8.72216797 C55.47351318 10.09332764 55.47351318 10.09332764 55.4609375 11.4921875 C55.45868164 12.51892578 55.45642578 13.54566406 55.45410156 14.60351562 C55.42799805 15.68310547 55.40189453 16.76269531 55.375 17.875 C55.35920898 18.99326172 55.34341797 20.11152344 55.32714844 21.26367188 C55.08361014 33.15245692 53.6661981 44.57059439 51.125 56.1875 C50.90118652 57.24904297 50.90118652 57.24904297 50.67285156 58.33203125 C49.62035469 62.79169081 48.31326057 65.81219853 45 69 C41.94140625 70.546875 41.94140625 70.546875 38.5625 71.75 C37.45003906 72.15734375 36.33757813 72.5646875 35.19140625 72.984375 C27.82113358 75.32987181 20.74513775 75.21872209 13.0625 75.25 C11.79986328 75.270625 10.53722656 75.29125 9.23632812 75.3125 C8.01494141 75.31765625 6.79355469 75.3228125 5.53515625 75.328125 C4.425354 75.3374707 3.31555176 75.34681641 2.17211914 75.35644531 C-1.46847285 74.94735855 -3.87591061 73.88425696 -7 72 C-7.859375 70.14453125 -7.859375 70.14453125 -8 68 C-8.06703125 67.19949219 -8.1340625 66.39898438 -8.203125 65.57421875 C-8.41232836 52.69077871 -6.49169939 39.73803852 -4.0859375 27.1015625 C-2.40167716 18.12268979 -1.25726173 9.04648943 0 0 Z " fill="#FBFBFB" transform="translate(838,1785)"/>
<path d="M0 0 C1.0304393 -0.00241196 2.0608786 -0.00482391 3.12254333 -0.00730896 C5.29877576 -0.00633022 7.475033 0.00706965 9.65112305 0.03198242 C12.98767318 0.06631959 16.32157999 0.05263499 19.65820312 0.03320312 C21.77214672 0.04010054 23.88608347 0.04977198 26 0.0625 C27.50005333 0.0550602 27.50005333 0.0550602 29.03041077 0.04747009 C29.95824875 0.06330643 30.88608673 0.07914276 31.84204102 0.09545898 C32.65826431 0.10165756 33.47448761 0.10785614 34.31544495 0.11424255 C36.43359375 0.62890625 36.43359375 0.62890625 38.1783905 2.53663635 C45.1366956 14.13527771 39.84355028 35.13251315 37.43359375 47.62890625 C37.22863281 48.70785156 37.02367187 49.78679687 36.8125 50.8984375 C35.58974563 55.96413416 33.8026865 59.28581425 29.59375 62.44921875 C25.45818567 64.70770053 21.02802294 65.72047715 16.43359375 66.62890625 C15.54671875 66.81453125 14.65984375 67.00015625 13.74609375 67.19140625 C9.15524934 67.79774419 4.62188196 67.81316463 -0.00390625 67.81640625 C-0.91978516 67.82865234 -1.83566406 67.84089844 -2.77929688 67.85351562 C-8.08460038 67.86494126 -12.6075574 67.59545896 -17.56640625 65.62890625 C-19.98683383 61.99826487 -19.90957666 59.33075307 -19.87890625 55.12890625 C-19.87616699 54.35788574 -19.87342773 53.58686523 -19.87060547 52.79248047 C-19.67174704 41.01869009 -18.12963813 29.28756759 -16.56640625 17.62890625 C-16.43202148 16.53545898 -16.29763672 15.44201172 -16.15917969 14.31542969 C-16.01254883 13.26129883 -15.86591797 12.20716797 -15.71484375 11.12109375 C-15.59028809 10.18378418 -15.46573242 9.24647461 -15.33740234 8.28076172 C-12.84819035 -0.28092943 -7.86122654 -0.10443347 0 0 Z " fill="#FCFCFC" transform="translate(868.56640625,1660.37109375)"/>
<path d="M0 0 C5.21476591 1.97441025 8.47570896 6.00933745 10.73828125 10.97265625 C12.05393879 16.24105684 12.03779419 21.378204 12.06640625 26.7890625 C12.09927734 27.87058594 12.13214844 28.95210937 12.16601562 30.06640625 C12.21606261 37.60985185 10.8973931 43.24339099 6.62890625 49.5390625 C2.04345011 53.81882157 -2.25657522 53.88579084 -8.37109375 53.9765625 C-9.04760986 53.98703613 -9.72412598 53.99750977 -10.42114258 54.00830078 C-16.37712158 53.90280849 -21.17459279 52.55252171 -25.62109375 48.4765625 C-31.68636083 38.29557848 -31.9262587 25.58333836 -29.71484375 14.14453125 C-27.75261005 7.96180351 -24.82422238 4.05807654 -19.37109375 0.5390625 C-14.30313095 -1.9949189 -5.5186348 -1.07281533 0 0 Z " fill="#FBFBFB" transform="translate(1836.37109375,2009.4609375)"/>
<path d="M0 0 C24 0 24 0 33 4 C37.03670795 8.82435829 37.68874173 13.03832445 37.45703125 19.27734375 C36.40332832 25.55453128 32.98338588 29.35113067 28 33 C28.27263672 33.56509277 28.54527344 34.13018555 28.82617188 34.71240234 C30.05479852 37.26469044 31.27746388 39.81978936 32.5 42.375 C32.92925781 43.26445312 33.35851563 44.15390625 33.80078125 45.0703125 C34.20683594 45.92109375 34.61289063 46.771875 35.03125 47.6484375 C35.59682617 48.82672119 35.59682617 48.82672119 36.17382812 50.02880859 C37 52 37 52 37 54 C34.69 54 32.38 54 30 54 C27.03 47.4 24.06 40.8 21 34 C16.05 33.67 11.1 33.34 6 33 C6 39.93 6 46.86 6 54 C4.02 54 2.04 54 0 54 C0 36.18 0 18.36 0 0 Z " fill="#090909" transform="translate(1869,2009)"/>
<path d="M0 0 C24 0 24 0 33 4 C37.32894251 9.06803025 37.56210692 13.56256773 37.32421875 20.125 C36.76639409 25.07149334 35.2868325 28.35817922 32.1875 32.3125 C26.9781774 36.33112029 21.39554959 36.26208108 15.125 36.125 C11.103125 36.063125 11.103125 36.063125 7 36 C7 41.94 7 47.88 7 54 C4.69 54 2.38 54 0 54 C0 36.18 0 18.36 0 0 Z " fill="#161616" transform="translate(1182,2009)"/>
<path d="M0 0 C26 0 26 0 32 3 C36.57119937 7.8864545 36.34380722 13.54492307 36.28125 19.94921875 C35.88133092 24.28722988 34.67246167 27.55780018 32 31 C27.91934854 34.16250488 23.98291522 35.13623421 18.890625 35.09765625 C17.8701709 35.09390991 17.8701709 35.09390991 16.82910156 35.09008789 C15.97799805 35.08098389 15.12689453 35.07187988 14.25 35.0625 C11.5275 35.041875 8.805 35.02125 6 35 C6 40.94 6 46.88 6 53 C4.02 53 2.04 53 0 53 C0 35.51 0 18.02 0 0 Z " fill="#0A0A0A" transform="translate(1238,2010)"/>
<path d="M0 0 C3.63 0 7.26 0 11 0 C14.67607237 8.70919949 17.47632138 17.60052398 20.25 26.625 C20.71316664 28.12120989 21.17670561 29.61730458 21.640625 31.11328125 C22.76470864 34.74087513 23.88375937 38.36998547 25 42 C26.66689406 39.49965891 27.45592104 37.95833268 28.31274414 35.18701172 C28.54961441 34.42967743 28.78648468 33.67234314 29.03053284 32.89205933 C29.27955856 32.07947662 29.52858429 31.26689392 29.78515625 30.4296875 C30.17688271 29.17443771 30.17688271 29.17443771 30.57652283 27.89382935 C31.40975127 25.22228219 32.23662461 22.54882861 33.0625 19.875 C33.89253787 17.1942247 34.72397225 14.51391388 35.55918884 11.83474731 C36.07876968 10.16749946 36.59525481 8.49928324 37.1084137 6.83004761 C38.88778471 1.11221529 38.88778471 1.11221529 40 0 C43.63 0 47.26 0 51 0 C51 17.49 51 34.98 51 53 C49.02 53 47.04 53 45 53 C44.67 38.15 44.34 23.3 44 8 C36.575 29.285 36.575 29.285 29 51 C26.69 51 24.38 51 22 51 C17.05 36.48 12.1 21.96 7 7 C6.67 22.18 6.34 37.36 6 53 C4.02 53 2.04 53 0 53 C0 35.51 0 18.02 0 0 Z " fill="#0A0A0A" transform="translate(1392,2010)"/>
<path d="M0 0 C3.96 0 7.92 0 12 0 C13.56312023 3.63946495 15.12579344 7.279118 16.6875 10.91918945 C17.46830197 12.73863635 18.24976208 14.55780076 19.03125 16.37695312 C23.40167598 26.56550869 27.69754366 36.7816662 32 47 C32.33 31.49 32.66 15.98 33 0 C35.31 0 37.62 0 40 0 C40 17.82 40 35.64 40 54 C36.04 54 32.08 54 28 54 C26.43687977 50.36053505 24.87420656 46.720882 23.3125 43.08081055 C22.53169803 41.26136365 21.75023792 39.44219924 20.96875 37.62304688 C16.59832402 27.43449131 12.30245634 17.2183338 8 7 C7.67 22.51 7.34 38.02 7 54 C4.69 54 2.38 54 0 54 C0 36.18 0 18.36 0 0 Z " fill="#1B1A1A" transform="translate(1518,2009)"/>
<path d="M0 0 C5.21476591 1.97441025 8.47570896 6.00933745 10.73828125 10.97265625 C12.05393879 16.24105684 12.03779419 21.378204 12.06640625 26.7890625 C12.09927734 27.87058594 12.13214844 28.95210937 12.16601562 30.06640625 C12.21606261 37.60985185 10.8973931 43.24339099 6.62890625 49.5390625 C2.04345011 53.81882157 -2.25657522 53.88579084 -8.37109375 53.9765625 C-9.04760986 53.98703613 -9.72412598 53.99750977 -10.42114258 54.00830078 C-16.37712158 53.90280849 -21.17459279 52.55252171 -25.62109375 48.4765625 C-31.68636083 38.29557848 -31.9262587 25.58333836 -29.71484375 14.14453125 C-27.75261005 7.96180351 -24.82422238 4.05807654 -19.37109375 0.5390625 C-14.30313095 -1.9949189 -5.5186348 -1.07281533 0 0 Z M-20.37109375 8.5390625 C-24.12057347 14.10079076 -23.81994659 19.51443926 -23.74609375 25.9765625 C-23.75769531 26.98783203 -23.76929688 27.99910156 -23.78125 29.04101562 C-23.75497324 35.75472796 -23.1927935 41.01193781 -18.87109375 46.4140625 C-14.51895586 49.67816592 -8.51404039 49.04673534 -3.37109375 48.5390625 C1.0227799 46.65597379 2.25474313 45.34736225 4.26171875 41.01171875 C5.97771969 36.16219876 6.0731026 31.57787093 6.00390625 26.4765625 C6.01550781 25.61740234 6.02710938 24.75824219 6.0390625 23.87304688 C6.00883354 17.27809581 4.96255091 12.39965917 0.69140625 7.1640625 C-3.09462575 4.1811282 -7.44122652 4.1924444 -12.12109375 4.26171875 C-15.7245316 4.70589251 -17.7135491 6.13461734 -20.37109375 8.5390625 Z " fill="#090909" transform="translate(1836.37109375,2009.4609375)"/>
<path d="M0 0 C10.89 0 21.78 0 33 0 C33 1.98 33 3.96 33 6 C24.42 6 15.84 6 7 6 C7 11.94 7 17.88 7 24 C13.93 24 20.86 24 28 24 C28 25.65 28 27.3 28 29 C20.74 29 13.48 29 6 29 C6 35.27 6 41.54 6 48 C14.91 48 23.82 48 33 48 C33 49.98 33 51.96 33 54 C22.11 54 11.22 54 0 54 C0 36.18 0 18.36 0 0 Z " fill="#121212" transform="translate(1339,2009)"/>
<path d="M0 0 C10.89 0 21.78 0 33 0 C33 1.98 33 3.96 33 6 C24.09 6 15.18 6 6 6 C6 11.94 6 17.88 6 24 C13.26 24 20.52 24 28 24 C28 25.65 28 27.3 28 29 C20.74 29 13.48 29 6 29 C6 35.27 6 41.54 6 48 C14.91 48 23.82 48 33 48 C33 49.98 33 51.96 33 54 C22.11 54 11.22 54 0 54 C0 36.18 0 18.36 0 0 Z " fill="#0C0C0C" transform="translate(1926,2009)"/>
<path d="M0 0 C10.89 0 21.78 0 33 0 C33 1.98 33 3.96 33 6 C24.09 6 15.18 6 6 6 C6 11.94 6 17.88 6 24 C13.26 24 20.52 24 28 24 C28 25.65 28 27.3 28 29 C20.74 29 13.48 29 6 29 C6 35.27 6 41.54 6 48 C14.91 48 23.82 48 33 48 C33 49.98 33 51.96 33 54 C22.11 54 11.22 54 0 54 C0 36.18 0 18.36 0 0 Z " fill="#0B0B0B" transform="translate(1466,2009)"/>
<path d="M0 0 C1.98 0 3.96 0 6 0 C6.01401855 1.92247559 6.01401855 1.92247559 6.02832031 3.88378906 C6.06820061 8.64016442 6.13395415 13.39589162 6.20751953 18.15185547 C6.23574049 20.21003898 6.25694941 22.2683311 6.27099609 24.32666016 C6.2924099 27.28604785 6.33905221 30.2441282 6.390625 33.203125 C6.39185364 34.12305237 6.39308228 35.04297974 6.39434814 35.99078369 C6.46467074 41.14147703 6.46467074 41.14147703 8.91308594 45.54980469 C12.26831286 47.88134983 14.24497582 48.15997954 18.3125 48.1875 C19.25738281 48.20167969 20.20226563 48.21585938 21.17578125 48.23046875 C24.26018114 47.97876807 26.32670285 47.5755893 29 46 C30.44298331 41.35418644 30.22385613 36.36647803 30.31640625 31.54296875 C30.33718735 30.64000565 30.35796844 29.73704254 30.37937927 28.80671692 C30.4445528 25.93371903 30.50360955 23.06063286 30.5625 20.1875 C30.60571586 18.23501706 30.64933112 16.28254292 30.69335938 14.33007812 C30.80020107 9.55347497 30.90155857 4.77678336 31 0 C32.98 0 34.96 0 37 0 C37.09908722 6.1563653 37.17157253 12.3122635 37.21972656 18.46923828 C37.23980659 20.56241953 37.2670764 22.65554492 37.30175781 24.74853516 C37.35043434 27.76218469 37.37300512 30.77509073 37.390625 33.7890625 C37.41127014 34.72054108 37.43191528 35.65201965 37.45318604 36.61172485 C37.45517748 42.41525807 36.78984501 45.54275537 33 50 C27.40758738 54.91454442 20.95579794 54.40685628 13.91015625 54.27734375 C8.89356777 53.92152179 6.74314116 53.30789219 3 50 C-0.50917848 44.66014901 -0.39539074 39.95056978 -0.29296875 33.7890625 C-0.28872391 32.82092621 -0.28447906 31.85278992 -0.28010559 30.85531616 C-0.26337956 27.77825527 -0.22573831 24.70186128 -0.1875 21.625 C-0.17244532 19.53256158 -0.15875829 17.44011283 -0.14648438 15.34765625 C-0.11349588 10.23151582 -0.06175528 5.11587079 0 0 Z " fill="#070707" transform="translate(1123,2009)"/>
<path d="M0 0 C0.90621094 0.00064453 1.81242187 0.00128906 2.74609375 0.00195312 C9.45248724 0.04666241 9.45248724 0.04666241 12.875 1.1875 C12.875 2.8375 12.875 4.4875 12.875 6.1875 C12.25979492 6.17702637 11.64458984 6.16655273 11.01074219 6.15576172 C8.21553657 6.11411305 5.42039634 6.08814584 2.625 6.0625 C1.65691406 6.04574219 0.68882813 6.02898437 -0.30859375 6.01171875 C-1.24316406 6.00527344 -2.17773438 5.99882813 -3.140625 5.9921875 C-4.42888184 5.97647705 -4.42888184 5.97647705 -5.74316406 5.96044922 C-8.34230884 6.20821517 -9.92951408 6.79220931 -12.125 8.1875 C-13.67960305 11.29670609 -13.85220693 14.81833028 -13.125 18.1875 C-10.04272045 21.34551124 -6.43697909 22.10698927 -2.25 23.1875 C8.97415232 26.09656756 8.97415232 26.09656756 12.75 30.25 C14.8473518 35.72641859 14.62093138 41.06748449 12.6875 46.5625 C10.00948157 50.44100945 7.35125233 52.69541589 2.875 54.1875 C0.28037544 54.28465555 -2.2811562 54.32669987 -4.875 54.3125 C-5.91140625 54.31830078 -5.91140625 54.31830078 -6.96875 54.32421875 C-11.45153965 54.31579245 -15.7017176 53.91699422 -20.125 53.1875 C-20.125 51.5375 -20.125 49.8875 -20.125 48.1875 C-19.50979492 48.19797363 -18.89458984 48.20844727 -18.26074219 48.21923828 C-15.46553657 48.26088695 -12.67039634 48.28685416 -9.875 48.3125 C-8.90691406 48.32925781 -7.93882813 48.34601562 -6.94140625 48.36328125 C-5.53955078 48.37294922 -5.53955078 48.37294922 -4.109375 48.3828125 C-2.82111816 48.39852295 -2.82111816 48.39852295 -1.50683594 48.41455078 C1.09230884 48.16678483 2.67951408 47.58279069 4.875 46.1875 C6.09239502 43.75270995 6.14627853 41.96670476 6.25 39.25 C6.29898437 38.37472656 6.34796875 37.49945312 6.3984375 36.59765625 C6.0992907 34.00900472 6.0992907 34.00900472 3.7890625 32.49609375 C0.52582329 31.03069812 -2.66206933 30.08308552 -6.125 29.1875 C-16.44728455 26.51794365 -16.44728455 26.51794365 -19.41015625 22.40234375 C-20.99741064 17.48445719 -20.75659066 12.26600452 -20.125 7.1875 C-15.05876522 -0.19472783 -8.19810255 -0.11173884 0 0 Z " fill="#0B0B0B" transform="translate(1726.125,2008.8125)"/>
<path d="M0 0 C0.73798828 0.00064453 1.47597656 0.00128906 2.23632812 0.00195312 C6.44644895 0.03563409 10.41703367 0.36629035 14.5625 1.1875 C14.5625 2.8375 14.5625 4.4875 14.5625 6.1875 C13.94729492 6.17702637 13.33208984 6.16655273 12.69824219 6.15576172 C9.90303657 6.11411305 7.10789634 6.08814584 4.3125 6.0625 C3.34441406 6.04574219 2.37632813 6.02898437 1.37890625 6.01171875 C0.44433594 6.00527344 -0.49023438 5.99882813 -1.453125 5.9921875 C-2.74138184 5.97647705 -2.74138184 5.97647705 -4.05566406 5.96044922 C-6.65480884 6.20821517 -8.24201408 6.79220931 -10.4375 8.1875 C-11.99210305 11.29670609 -12.16470693 14.81833028 -11.4375 18.1875 C-8.36268851 21.33767452 -4.80642949 22.06944954 -0.625 23.125 C11.86506521 26.54319683 11.86506521 26.54319683 14.7109375 30.9765625 C16.35536945 35.24605096 16.09608031 39.69761693 15.5625 44.1875 C13.5601035 48.192293 11.38251123 50.8462028 7.5625 53.1875 C4.79153503 54.11115499 3.11389327 54.31603885 0.25390625 54.3203125 C-0.99036133 54.32224609 -0.99036133 54.32224609 -2.25976562 54.32421875 C-3.12279297 54.32035156 -3.98582031 54.31648438 -4.875 54.3125 C-5.73416016 54.31636719 -6.59332031 54.32023437 -7.47851562 54.32421875 C-8.30931641 54.32292969 -9.14011719 54.32164062 -9.99609375 54.3203125 C-10.75204834 54.31918457 -11.50800293 54.31805664 -12.28686523 54.31689453 C-14.45171854 54.18664453 -16.35621253 53.78164783 -18.4375 53.1875 C-18.4375 51.5375 -18.4375 49.8875 -18.4375 48.1875 C-17.82229492 48.19797363 -17.20708984 48.20844727 -16.57324219 48.21923828 C-13.77803657 48.26088695 -10.98289634 48.28685416 -8.1875 48.3125 C-7.21941406 48.32925781 -6.25132813 48.34601562 -5.25390625 48.36328125 C-3.85205078 48.37294922 -3.85205078 48.37294922 -2.421875 48.3828125 C-1.13361816 48.39852295 -1.13361816 48.39852295 0.18066406 48.41455078 C2.7868427 48.16611432 4.36382453 47.59190547 6.5625 46.1875 C8.59433578 42.53019559 9.01294125 39.33155952 8.5625 35.1875 C5.20329041 30.98448971 -0.02622713 30.47993011 -5.01367188 29.2578125 C-10.30767162 27.84483978 -13.50164664 26.03182189 -17.4375 22.1875 C-19.65406628 17.75436743 -18.96899829 12.00084406 -18.4375 7.1875 C-13.76862996 0.38428937 -7.63044472 -0.12595869 0 0 Z " fill="#0B0B0B" transform="translate(1646.4375,2008.8125)"/>
<path d="M0 0 C1.00546875 0.00966797 2.0109375 0.01933594 3.046875 0.02929688 C10.41125607 0.14312803 10.41125607 0.14312803 12.75 1.3125 C12.75 2.9625 12.75 4.6125 12.75 6.3125 C12.14003174 6.29155273 11.53006348 6.27060547 10.90161133 6.24902344 C8.12207706 6.16557139 5.3428068 6.11374989 2.5625 6.0625 C1.60279297 6.02898437 0.64308594 5.99546875 -0.34570312 5.9609375 C-4.77077631 5.89969081 -7.48799025 5.87652427 -11.390625 8.109375 C-13.55481849 10.28961486 -13.55481849 10.28961486 -13.8125 13.8125 C-13.14284783 17.9792246 -12.5338869 18.75950956 -9.25 21.3125 C-6.49767803 22.38992401 -3.67873497 23.10267238 -0.8125 23.8125 C4.59410099 25.15834917 8.62986638 26.31144539 12.75 30.3125 C14.8306788 34.4738576 14.08257901 39.76923315 13.75 44.3125 C12.25027657 48.58671176 10.65361026 50.99473141 6.75 53.3125 C3.11686578 54.52354474 -0.21954476 54.45819592 -4 54.4375 C-5.03640625 54.44330078 -5.03640625 54.44330078 -6.09375 54.44921875 C-10.57653965 54.44079245 -14.8267176 54.04199422 -19.25 53.3125 C-19.25 51.6625 -19.25 50.0125 -19.25 48.3125 C-18.32719238 48.33606567 -18.32719238 48.33606567 -17.38574219 48.36010742 C-14.59058879 48.42257926 -11.79558245 48.46152868 -9 48.5 C-8.03191406 48.52513672 -7.06382813 48.55027344 -6.06640625 48.57617188 C-5.13183594 48.58583984 -4.19726562 48.59550781 -3.234375 48.60546875 C-1.94611816 48.62903442 -1.94611816 48.62903442 -0.63183594 48.65307617 C2.29535855 48.23451976 3.62337419 47.33979234 5.75 45.3125 C6.66692961 42.56171116 6.85886083 40.95301087 6.8125 38.125 C6.791875 36.866875 6.77125 35.60875 6.75 34.3125 C1.49167828 31.46080828 -3.75551659 29.88055806 -9.50390625 28.3828125 C-14.25459572 27.01777507 -16.63356251 25.51702393 -19.25 21.3125 C-20.92009208 16.30222375 -20.82792698 11.98206683 -19.125 7.0625 C-14.05204782 -0.37782986 -8.3869778 -0.24571224 0 0 Z " fill="#070707" transform="translate(1089.25,2008.6875)"/>
<path d="M0 0 C2.701875 -0.061875 5.40375 -0.12375 8.1875 -0.1875 C9.02949951 -0.21481201 9.87149902 -0.24212402 10.73901367 -0.27026367 C15.32319574 -0.32093869 18.29360873 0.00557089 22 3 C24.84073088 7.26109632 24.5133666 10.99856479 24 16 C22.45771534 20.11275909 21.66328593 21.55780938 18 24 C16.00708008 24.22705078 16.00708008 24.22705078 13.76953125 24.1953125 C13.04612549 24.19031738 12.32271973 24.18532227 11.57739258 24.18017578 C10.66497803 24.16196777 9.75256348 24.14375977 8.8125 24.125 C5.904375 24.08375 2.99625 24.0425 0 24 C0 16.08 0 8.16 0 0 Z " fill="#FDFCFC" transform="translate(1244,2015)"/>
<path d="M0 0 C2.701875 -0.061875 5.40375 -0.12375 8.1875 -0.1875 C9.02949951 -0.21481201 9.87149902 -0.24212402 10.73901367 -0.27026367 C15.30010232 -0.32068341 18.35745463 -0.05260393 22 3 C24.72965266 7.04087554 24.53830556 11.29390443 24 16 C22.44728802 20.06662662 21.63720598 21.57519602 18 24 C16.00708008 24.22705078 16.00708008 24.22705078 13.76953125 24.1953125 C13.04612549 24.19031738 12.32271973 24.18532227 11.57739258 24.18017578 C10.66497803 24.16196777 9.75256348 24.14375977 8.8125 24.125 C5.904375 24.08375 2.99625 24.0425 0 24 C0 16.08 0 8.16 0 0 Z " fill="#FBFBFB" transform="translate(1189,2015)"/>
<path d="M0 0 C12.87 0 25.74 0 39 0 C39 1.98 39 3.96 39 6 C33.72 6 28.44 6 23 6 C23 21.84 23 37.68 23 54 C21.02 54 19.04 54 17 54 C17 38.16 17 22.32 17 6 C11.39 6 5.78 6 0 6 C0 4.02 0 2.04 0 0 Z " fill="#0A0A0A" transform="translate(1574,2009)"/>
<path d="M0 0 C12.54 0 25.08 0 38 0 C38 1.98 38 3.96 38 6 C32.72 6 27.44 6 22 6 C22 21.84 22 37.68 22 54 C20.02 54 18.04 54 16 54 C16 38.16 16 22.32 16 6 C10.72 6 5.44 6 0 6 C0 4.02 0 2.04 0 0 Z " fill="#080808" transform="translate(1754,2009)"/>
<path d="M0 0 C2.866875 -0.061875 5.73375 -0.12375 8.6875 -0.1875 C10.02880981 -0.22846802 10.02880981 -0.22846802 11.3972168 -0.27026367 C16.08604008 -0.31916583 19.21011422 -0.08722451 23 3 C24.96752105 6.9350421 24.46422595 11.7105522 24 16 C22.19881522 19.00197464 21.09667268 20.45166366 18 22 C16.62451844 22.08308638 15.24514204 22.10736016 13.8671875 22.09765625 C13.14128418 22.09515869 12.41538086 22.09266113 11.66748047 22.09008789 C10.74596191 22.08098389 9.82444336 22.07187988 8.875 22.0625 C5.94625 22.041875 3.0175 22.02125 0 22 C0 14.74 0 7.48 0 0 Z " fill="#FDFDFD" transform="translate(1875,2015)"/>
<path d="M0 0 C1.98 0 3.96 0 6 0 C6 15.84 6 31.68 6 48 C13.59 48 21.18 48 29 48 C29 49.98 29 51.96 29 54 C19.43 54 9.86 54 0 54 C0 36.18 0 18.36 0 0 Z " fill="#070707" transform="translate(1293,2009)"/>
</svg>
